<?xml version="1.0" standalone="no"?>
<!DOCTYPE svg PUBLIC "-//W3C//DTD SVG 1.1//EN" "http://www.w3.org/Graphics/SVG/1.1/DTD/svg11.dtd" >
<svg xmlns="http://www.w3.org/2000/svg">
<metadata></metadata>
<defs>
<font id="db_helvethaica_xbold" horiz-adv-x="0" >
<font-face units-per-em="2048" ascent="1638" descent="-410" />
<missing-glyph horiz-adv-x="348" />
<glyph unicode="&#x2b;&#x2d;" horiz-adv-x="833" d="M778 643v-153h-280v-287h-162v287h-283v153h283v289h162v-289h280zM778 158v-158h-725v158h725z" />
<glyph unicode="&#x2e;&#x2e;&#x2e;" horiz-adv-x="1388" d="M344 213v-213h-213v213h213zM798 213v-213h-212v213h212zM1256 213v-213h-214v213h214z" />
<glyph unicode="&#x3c;&#x3d;" horiz-adv-x="897" d="M291 614l541 -244v-170l-774 347v137l774 348v-172zM58 164h774v-164h-774v164z" />
<glyph unicode="&#x3e;&#x3d;" horiz-adv-x="897" d="M66 860v172l774 -348v-137l-774 -347v170l540 244zM66 0h774v164h-774v-164z" />
<glyph unicode="&#xe4f;&#x22;" horiz-adv-x="1014" d="M545 1218h145l-14 -250h-115zM334 1218h143l-16 -250h-113zM66 418q0 61 15.5 117.5t44.5 105t69.5 89t90 68.5t106 44t118.5 16q60 0 116 -16t105 -44t89 -68.5t68 -89t44 -105t16 -117.5t-16 -117.5t-44 -105.5t-68 -89t-89 -68.5t-105 -44t-116 -15.5 q-62 0 -118.5 15.5t-106 44t-90 68.5t-69.5 89t-44.5 105.5t-15.5 117.5zM274 422q0 47 19 89t51 73.5t75 50.5t91 19q47 0 88.5 -19t73 -50.5t50 -73.5t18.5 -89q0 -48 -18.5 -91t-50 -74.5t-73 -50t-88.5 -18.5q-48 0 -91 18.5t-75 50t-51 74.5t-19 91zM205 422 q0 -42 10.5 -80.5t30.5 -72.5t48 -62t62 -48.5t73 -31.5t81 -11q41 0 79.5 11t71.5 31.5t61 48.5t47.5 62t30.5 72.5t11 80.5q0 62 -24 117t-65 96t-95.5 64.5t-116.5 23.5q-64 0 -119.5 -23.5t-97 -64.5t-65 -96t-23.5 -117zM400 422q0 -23 8 -43.5t23 -35.5t35 -23t44 -8 q22 0 41 8t33 23t22 35.5t8 43.5q0 22 -8 41t-22 33.5t-33 23t-41 8.5q-24 0 -44 -8.5t-35 -23t-23 -33.5t-8 -41z" />
<glyph unicode="&#xe0e;&#xe3a;" horiz-adv-x="936" d="M620 -482q0 27 11 51.5t28.5 42t41 28t51.5 10.5q26 0 49 -10.5t41 -28t28 -41.5t10 -52q0 -26 -10 -49t-28 -41t-41 -28t-49 -10q-27 0 -51 10t-41.5 28t-28.5 41t-11 49zM858 -293h-192q-10 17 -26 34t-37 30t-51 22t-68 9q-34 0 -66.5 -7.5t-63.5 -22.5t-61.5 -38.5 t-62.5 -57.5v187q22 22 50 40t60.5 31.5t68.5 21.5q37 7 75 7q54 0 94 -11.5t69 -25.5v590q0 29 -9.5 57.5t-31 51.5t-57 37.5t-88.5 15.5q-40 0 -71.5 -7.5t-54 -20t-36 -27.5t-19.5 -29q13 -12 23 -25t16.5 -29.5t9.5 -38t3 -51.5v-450h-287v162h80v290q0 14 -3.5 29 t-11.5 29.5t-22 28.5t-35 26q9 36 25 71.5t40 67.5t56.5 60t75 49t95 33t116.5 12q76 0 134.5 -14t102.5 -38t75 -58t50 -73t27 -83t8 -90v-795z" />
<glyph unicode="&#xe0f;&#xe3a;" horiz-adv-x="936" d="M620 -482q0 27 11 51.5t28.5 42t41 28t51.5 10.5q26 0 49 -10.5t41 -28t28 -41.5t10 -52q0 -26 -10 -49t-28 -41t-41 -28t-49 -10q-27 0 -51 10t-41.5 28t-28.5 41t-11 49zM858 -299h-204q-2 16 -8 32.5t-14.5 30.5t-20 22.5t-25.5 8.5t-24.5 -8.5t-17 -22.5t-10.5 -30.5 t-4 -32.5h-158q0 16 -4 32.5t-12.5 30.5t-20 23.5t-26.5 9.5q-16 0 -28 -9.5t-19.5 -23.5t-11.5 -31t-4 -32h-186q0 66 18 113.5t49 78.5t72 45.5t87 14.5q24 0 45.5 -5.5t40 -14.5t34.5 -22t28 -27q11 14 25.5 25.5t31 20.5t35 14t37.5 5q28 0 49 -9.5t35 -21.5v598 q0 29 -9.5 57.5t-31 51.5t-57 37.5t-88.5 15.5q-40 0 -71.5 -7.5t-54 -20t-36 -27.5t-19.5 -29q13 -12 23 -25t16.5 -29.5t9.5 -38t3 -51.5v-450h-287v162h80v290q0 14 -3.5 29t-11.5 29.5t-22 28.5t-35 26q9 36 25 71.5t40 67.5t56.5 60t75 49t95 33t116.5 12 q76 0 134.5 -14t102.5 -38t75 -58t50 -73t27 -83t8 -90v-801z" />
<glyph unicode="&#xe0e;&#xe38;" horiz-adv-x="936" d="M668 -723v211h-94v150h284v-361h-190zM858 -293h-192q-10 17 -26 34t-37 30t-51 22t-68 9q-34 0 -66.5 -7.5t-63.5 -22.5t-61.5 -38.5t-62.5 -57.5v187q22 22 50 40t60.5 31.5t68.5 21.5q37 7 75 7q54 0 94 -11.5t69 -25.5v590q0 29 -9.5 57.5t-31 51.5t-57 37.5 t-88.5 15.5q-40 0 -71.5 -7.5t-54 -20t-36 -27.5t-19.5 -29q13 -12 23 -25t16.5 -29.5t9.5 -38t3 -51.5v-450h-287v162h80v290q0 14 -3.5 29t-11.5 29.5t-22 28.5t-35 26q9 36 25 71.5t40 67.5t56.5 60t75 49t95 33t116.5 12q76 0 134.5 -14t102.5 -38t75 -58t50 -73t27 -83 t8 -90v-795z" />
<glyph unicode="&#xe0f;&#xe38;" horiz-adv-x="936" d="M668 -723v211h-94v150h284v-361h-190zM858 -299h-204q-2 16 -8 32.5t-14.5 30.5t-20 22.5t-25.5 8.5t-24.5 -8.5t-17 -22.5t-10.5 -30.5t-4 -32.5h-158q0 16 -4 32.5t-12.5 30.5t-20 23.5t-26.5 9.5q-16 0 -28 -9.5t-19.5 -23.5t-11.5 -31t-4 -32h-186q0 66 18 113.5 t49 78.5t72 45.5t87 14.5q24 0 45.5 -5.5t40 -14.5t34.5 -22t28 -27q11 14 25.5 25.5t31 20.5t35 14t37.5 5q28 0 49 -9.5t35 -21.5v598q0 29 -9.5 57.5t-31 51.5t-57 37.5t-88.5 15.5q-40 0 -71.5 -7.5t-54 -20t-36 -27.5t-19.5 -29q13 -12 23 -25t16.5 -29.5t9.5 -38 t3 -51.5v-450h-287v162h80v290q0 14 -3.5 29t-11.5 29.5t-22 28.5t-35 26q9 36 25 71.5t40 67.5t56.5 60t75 49t95 33t116.5 12q76 0 134.5 -14t102.5 -38t75 -58t50 -73t27 -83t8 -90v-801z" />
<glyph unicode="&#xe0e;&#xe39;" horiz-adv-x="936" d="M295 -362h266v-132q0 -32 12.5 -48.5t40.5 -16.5q54 -1 54 65v132h190v-132q0 -47 -13 -88.5t-41.5 -72.5t-75 -49.5t-114.5 -18.5q-61 0 -104.5 14.5t-73.5 41t-46 63t-20 80.5h-75v162zM858 -293h-192q-10 17 -26 34t-37 30t-51 22t-68 9q-34 0 -66.5 -7.5t-63.5 -22.5 t-61.5 -38.5t-62.5 -57.5v187q22 22 50 40t60.5 31.5t68.5 21.5q37 7 75 7q54 0 94 -11.5t69 -25.5v590q0 29 -9.5 57.5t-31 51.5t-57 37.5t-88.5 15.5q-40 0 -71.5 -7.5t-54 -20t-36 -27.5t-19.5 -29q13 -12 23 -25t16.5 -29.5t9.5 -38t3 -51.5v-450h-287v162h80v290 q0 14 -3.5 29t-11.5 29.5t-22 28.5t-35 26q9 36 25 71.5t40 67.5t56.5 60t75 49t95 33t116.5 12q76 0 134.5 -14t102.5 -38t75 -58t50 -73t27 -83t8 -90v-795z" />
<glyph unicode="&#xe0f;&#xe39;" horiz-adv-x="936" d="M295 -362h266v-132q0 -32 12.5 -48.5t40.5 -16.5q54 -1 54 65v132h190v-132q0 -47 -13 -88.5t-41.5 -72.5t-75 -49.5t-114.5 -18.5q-61 0 -104.5 14.5t-73.5 41t-46 63t-20 80.5h-75v162zM858 -299h-204q-2 16 -8 32.5t-14.5 30.5t-20 22.5t-25.5 8.5t-24.5 -8.5 t-17 -22.5t-10.5 -30.5t-4 -32.5h-158q0 16 -4 32.5t-12.5 30.5t-20 23.5t-26.5 9.5q-16 0 -28 -9.5t-19.5 -23.5t-11.5 -31t-4 -32h-186q0 66 18 113.5t49 78.5t72 45.5t87 14.5q24 0 45.5 -5.5t40 -14.5t34.5 -22t28 -27q11 14 25.5 25.5t31 20.5t35 14t37.5 5 q28 0 49 -9.5t35 -21.5v598q0 29 -9.5 57.5t-31 51.5t-57 37.5t-88.5 15.5q-40 0 -71.5 -7.5t-54 -20t-36 -27.5t-19.5 -29q13 -12 23 -25t16.5 -29.5t9.5 -38t3 -51.5v-450h-287v162h80v290q0 14 -3.5 29t-11.5 29.5t-22 28.5t-35 26q9 36 25 71.5t40 67.5t56.5 60t75 49 t95 33t116.5 12q76 0 134.5 -14t102.5 -38t75 -58t50 -73t27 -83t8 -90v-801z" />
<glyph unicode="&#xd;" horiz-adv-x="395" />
<glyph unicode=" "  horiz-adv-x="348" />
<glyph unicode="&#x09;" horiz-adv-x="348" />
<glyph unicode="&#xa0;" horiz-adv-x="348" />
<glyph unicode="!" horiz-adv-x="532" d="M370 203v-203h-210v203h210zM338 280h-144l-34 394v326h212v-326z" />
<glyph unicode="&#x22;" horiz-adv-x="633" d="M518 1010v-386h-166v386h166zM282 1010v-386h-166v386h166z" />
<glyph unicode="#" horiz-adv-x="854" d="M370 418h105q2 19 4.5 35.5t5 33.5t5 35t6.5 39h-105zM56 258v160h151q2 19 4.5 35.5t5 33.5t5 35t6.5 39h-136v158h156l38 258h160l-36 -258h106l37 258h162l-35 -258h118v-158h-136q-2 -19 -5 -36t-6.5 -33.5t-6.5 -34t-5 -39.5h119v-160h-142q-10 -68 -19 -131 t-17 -127h-164l36 258h-102q-9 -68 -20 -131q-10 -63 -18 -127h-162l34 258h-128z" />
<glyph unicode="$" horiz-adv-x="901" d="M254 338q0 -39 10.5 -69.5t29 -52.5t44.5 -36q25 -14 55 -22v270l-25 8q-36 10 -70 22t-65.5 28.5t-58 37.5t-46.5 49.5t-31 64.5t-11 83q0 46 12 85.5t33 71.5t50 57t63 43t72 29t77 15v94h127v-98q60 -9 114 -32.5t94 -63.5t63.5 -96t23.5 -130h-201q-2 30 -9 54 t-19 41t-29 28t-37 19v-238l45 -12q18 -4 45.5 -12t59 -21t63 -34t57.5 -52t42 -73t16 -99q0 -63 -21 -117.5t-63 -96.5t-103 -69q-61 -26 -141 -34v-117h-127v117q-46 5 -89.5 18t-81.5 34.5t-69 51t-53.5 68t-35 84.5t-11.5 102h201zM647 276q0 24 -9.5 43t-26.5 33 t-41 24q-23 12 -50 20v-240q23 4 45.5 12.5t40.5 23t29.5 34.5t11.5 50zM286 738q0 -20 5 -34t17 -25t32 -21t53 -21v209q-20 -4 -39.5 -12t-34.5 -21t-24 -31t-9 -44z" />
<glyph unicode="%" horiz-adv-x="1388" d="M260 710q0 -24 3 -51t12 -51t25 -39.5t44 -15.5q27 0 43.5 15.5t25.5 38.5t12 51t3 52q0 23 -2.5 50.5t-11 51.5t-24.5 40t-44 16q-27 0 -43.5 -16t-26 -40t-13 -51.5t-3.5 -50.5zM100 708q0 38 5 74.5t17 69t31 59.5t46 47t63.5 31t83.5 11q72 0 119 -23t75 -62.5 t40 -92t12 -112.5q0 -37 -6 -72.5t-19 -67.5t-32 -59t-47 -47t-63 -31t-79 -11q-68 0 -115 22t-76 61t-42 91t-13 112zM960 276q0 -22 3 -49t11.5 -50.5t24 -39.5t41.5 -16q28 0 46 15t27 38.5t12 51.5q3 26 3 52q0 24 -2.5 52t-11.5 51t-25.5 39t-44.5 16q-27 0 -43.5 -16 t-25.5 -39.5t-12 -52t-3 -52.5zM796 274q0 58 12.5 111t41 93.5t76.5 65t118 24.5q72 0 120 -23t76 -63t39 -92t11 -112q0 -56 -13 -107.5t-43 -91t-76 -63.5q-48 -24 -114 -24q-68 0 -115 22t-76 61t-43 90t-14 109zM1099 1020l-615 -1040h-192l616 1040h191z" />
<glyph unicode="&#x26;" horiz-adv-x="905" d="M641 98q-24 -28 -55.5 -49t-67.5 -35t-74 -21t-76 -7q-72 0 -124 15t-89 40t-59.5 55.5t-35 62t-17 60.5t-4.5 49q0 54 16.5 98t45.5 78.5t67 62.5t80 52q-20 24 -36.5 48t-29 49t-19.5 52.5t-7 59.5q0 44 16 84.5t47 71t77 48t106 17.5q50 0 98 -13.5t84.5 -41.5t59 -69 t22.5 -95q0 -40 -13.5 -75.5t-35.5 -66.5t-51 -57q-30 -27 -62 -47q17 -20 29.5 -35.5t24.5 -30.5t26 -32q12 -16 32 -39q6 25 10 51q4 28 7 60h170q-6 -49 -12 -85.5t-13 -65t-16.5 -53t-21.5 -50.5l210 -244h-221zM348 442q-26 -16 -49.5 -33t-41 -37t-28 -45t-10.5 -57 q0 -30 13 -54t34.5 -40t49.5 -25t56 -9q54 0 95 19.5t71 59.5zM332 764q0 -14 5 -29t14 -31t21 -31.5t26 -31.5q17 12 33.5 24.5t30 28t22 33t8.5 37.5q0 14 -5.5 27t-16 23t-25.5 16t-35 6q-14 0 -28.5 -4.5t-25.5 -13t-17.5 -22.5t-6.5 -32z" />
<glyph unicode="'" horiz-adv-x="385" d="M274 1010v-386h-166v386h166z" />
<glyph unicode="(" horiz-adv-x="461" d="M305 -314q-53 82 -97 165.5t-76 169t-50 174t-18 182.5q0 87 15 175.5t45.5 176t76 172.5t106.5 164h187q-59 -96 -101.5 -184t-68.5 -172.5t-39 -166.5t-13 -165q0 -82 12 -164t39 -166.5t69 -174.5t102 -186h-189z" />
<glyph unicode=")" horiz-adv-x="461" d="M-33 -314q60 96 102 186t68.5 174.5t38.5 166t12 164.5t-12 165t-39 166.5t-69 173t-101 183.5h187q60 -79 106 -164t76.5 -172.5t46 -176t15.5 -175.5q0 -94 -18 -182.5t-50 -174t-77 -168.5q-45 -84 -97 -166h-189z" />
<glyph unicode="*" horiz-adv-x="569" d="M488 930l52 -125l-144 -51l86 -119l-112 -78l-84 119l-81 -121l-119 76l86 123l-139 49l45 127l137 -50v144h139v-144z" />
<glyph unicode="+" horiz-adv-x="833" d="M778 473v-153h-280v-287h-162v287h-283v153h283v289h162v-289h280z" />
<glyph unicode="," horiz-adv-x="426" d="M320 203v-181q0 -46 -12 -88t-37 -77.5t-65 -63t-98 -45.5v127q22 6 38 17.5t26 28t15 36t5 39.5h-86v207h214z" />
<glyph unicode="-" horiz-adv-x="696" d="M643 473v-153h-590v153h590z" />
<glyph unicode="." horiz-adv-x="426" d="M320 213v-213h-214v213h214z" />
<glyph unicode="/" horiz-adv-x="557" d="M588 1024l-414 -1044h-202l409 1044h207z" />
<glyph unicode="0" horiz-adv-x="813" d="M45 490q0 40 1.5 82.5t7.5 85.5t16.5 84.5t29 78.5t44.5 69t63 55t86 36t113 13q84 0 144 -23t100 -61t63.5 -88.5t35.5 -106.5t15.5 -114.5t3.5 -110.5q0 -56 -3.5 -115.5t-15.5 -115.5t-35.5 -106.5t-63.5 -87.5t-100 -59t-144 -22q-63 0 -112.5 12t-86.5 35t-63 54 t-44.5 68t-29 78t-16.5 85t-7.5 88t-1.5 86zM252 490q0 -30 1 -66t5 -72.5t14 -70t27 -59.5t43 -42t64 -16t64.5 16t44 42t26.5 59.5t14 70t5 72.5q1 36 1 66t-0.5 65t-5.5 71t-14 69t-26.5 59t-44 41.5t-64.5 15.5t-64 -15.5t-43 -41.5t-26.5 -59t-14 -69t-5.5 -71t-1 -65z " />
<glyph unicode="1" horiz-adv-x="813" d="M98 798q54 2 101.5 10.5t84 28t62.5 53t37 87.5h170v-977h-203v672q-28 -13 -56 -22.5t-58.5 -15.5t-64 -9t-73.5 -5v178z" />
<glyph unicode="2" horiz-adv-x="813" d="M64 586q-8 88 13.5 162t67 129t113.5 86t154 31q70 0 131 -20t107 -59t73 -96t27 -131q0 -44 -11 -83t-29 -72t-42.5 -61t-52 -52t-56.5 -44t-57 -38q-31 -18 -62.5 -38t-60.5 -40t-53 -40t-37 -40h453v-180h-709q6 66 20.5 119.5t36.5 96.5t48.5 76.5t56.5 61.5t62 52 q33 22 65 44q57 37 97.5 65.5t67.5 55.5t39 55t12 64q0 28 -10 51t-28 39t-42 24q-24 9 -52 9q-38 0 -65.5 -19.5t-45 -51.5t-24.5 -73t-5 -83h-202z" />
<glyph unicode="3" horiz-adv-x="813" d="M344 588h35q27 0 51 7.5t43 21.5t30 34.5t11 46.5q0 27 -9.5 46.5t-26 32t-39.5 18.5t-50 6q-34 0 -58.5 -11.5t-40.5 -32.5t-23 -52.5t-7 -71.5h-207q3 83 26 148t65 109t103.5 67.5t141.5 23.5q70 0 130.5 -16.5t105 -51.5t69.5 -89t25 -128q0 -52 -21.5 -95t-58.5 -77 q62 -32 91.5 -91t29.5 -140q0 -48 -13.5 -90.5t-37 -78.5t-55.5 -64t-68 -46q-42 -20 -92 -26t-103 -6q-80 0 -146 20t-112.5 63t-72.5 109q-25 66 -25 156h205q2 -86 39.5 -129t111.5 -43q36 0 65.5 9t50.5 26.5t32.5 42t11.5 55.5q0 33 -12 58.5t-32.5 43t-49.5 26.5 t-61 9h-25t-27 -2v162z" />
<glyph unicode="4" horiz-adv-x="813" d="M452 647l-192 -264h192v264zM778 383v-178h-126v-205h-200v205h-413v161l451 611h162v-594h126z" />
<glyph unicode="5" horiz-adv-x="813" d="M330 811l-29 -147q26 8 57.5 13t59.5 5q73 0 136.5 -22t110.5 -66t74 -110t27 -154q0 -44 -10.5 -87t-31 -81t-52 -70t-73 -55t-93.5 -36t-115 -13q-67 0 -127 20.5t-106.5 61t-76.5 100.5t-36 139h203q6 -32 19 -58t33 -45t45 -29.5t57 -10.5t60 10.5t49 32t33.5 54.5 t12.5 77q0 35 -12 65.5t-34.5 52t-53.5 34t-68 12.5q-46 0 -82 -16q-35 -16 -69 -48l-170 2l98 537h549v-168h-385z" />
<glyph unicode="6" horiz-adv-x="813" d="M418 496q-37 0 -65.5 -14t-48.5 -38t-30 -55t-10 -65t10.5 -65t30 -54t48.5 -36t65 -13q35 0 62.5 13.5t46.5 37t28.5 53.5t9.5 64t-9 65t-27 54.5t-45.5 38t-65.5 14.5zM434 994q130 0 208 -70t104 -207h-193q-12 57 -43 89t-82 32q-32 0 -57.5 -11t-45 -30t-33 -44.5 t-22.5 -54t-14 -58.5q-4 -28 -6 -56q42 42 88.5 62t97.5 20q80 0 142 -26t105 -71t65 -106t22 -131q0 -39 -8 -80t-25 -79.5t-44 -73t-67 -60t-93 -40.5t-121 -15q-80 0 -138.5 21t-99.5 56.5t-66.5 83t-40 101t-19.5 109t-5 108.5q0 68 8 133.5t26 124.5t47.5 109t73.5 86 t102 57t134 21z" />
<glyph unicode="7" horiz-adv-x="813" d="M752 821q-48 -45 -92 -102.5t-82.5 -124t-70.5 -139.5t-56 -149t-39 -154t-19 -152h-211q8 120 34.5 230.5t68 209.5t96.5 186.5t121 163.5h-436v187h686v-156v0z" />
<glyph unicode="8" horiz-adv-x="813" d="M80 719q0 68 26.5 119t71 85.5t102.5 52.5t120 18q58 0 105 -11t84 -30t63 -45t43 -57t25.5 -64.5t8.5 -67.5q0 -56 -21.5 -103.5t-62.5 -81.5q59 -38 92 -97.5t33 -135.5t-29 -135t-78 -99.5t-114 -61.5t-137 -21q-76 0 -143.5 20t-117 60t-78 99t-28.5 138 q0 78 28.5 135.5t90.5 95.5q-42 36 -63 85t-21 102zM278 712q0 -27 11 -48t29 -35.5t42 -22.5t52 -8q26 0 48 8.5t37.5 23.5t24.5 36q8 20 8 46t-9 46t-26 34t-40 20.5t-49 6.5t-49 -6.5t-40.5 -20.5t-28 -34t-10.5 -46zM246 299q0 -34 12 -60.5t34.5 -44.5t53 -27t66.5 -9 q34 0 63 10t49.5 29.5t32 46t11.5 57.5q0 29 -13 54.5t-34.5 44.5t-50 29.5t-60.5 10.5q-34 0 -64 -10t-52 -28t-35 -44.5t-13 -58.5z" />
<glyph unicode="9" horiz-adv-x="813" d="M396 484q36 0 65 13t48 36.5t29 54.5q11 32 11 66t-10.5 64t-30.5 52.5t-48 35.5t-64 13t-63.5 -13.5t-46 -36.5t-28.5 -53t-10 -62q0 -34 9 -65t27 -54.5t46 -37t66 -13.5zM379 -16q-64 0 -117 17t-92.5 52t-65.5 87t-36 122h192q12 -56 43 -89t82 -33q32 0 57.5 11 t44.5 30t33 44t23 53t14 58t6 57q-42 -42 -88.5 -61.5t-97.5 -19.5q-80 0 -142 25t-104.5 70t-65 106t-22.5 132q0 39 7.5 80t24.5 80t45 73t68 60t93 41t121 15q80 0 138 -21t99 -57t66.5 -84t40 -101t19.5 -109t5 -108q0 -68 -8 -134t-26 -125t-48 -109t-73 -86 t-101.5 -56t-134.5 -20z" />
<glyph unicode=":" horiz-adv-x="426" d="M320 213v-213h-214v213h214zM320 727v-213h-214v213h214z" />
<glyph unicode=";" horiz-adv-x="426" d="M320 727v-213h-214v213h214zM320 203v-181q0 -46 -12 -88t-37 -77.5t-65 -63t-98 -45.5v127q22 6 38 17.5t26 28t15 36t5 39.5h-86v207h214z" />
<glyph unicode="&#x3c;" horiz-adv-x="897" d="M291 410l541 -244v-180l-774 346v158l774 348v-182z" />
<glyph unicode="=" horiz-adv-x="833" d="M770 614v-162h-708v162h708zM770 338v-162h-708v162h708z" />
<glyph unicode="&#x3e;" horiz-adv-x="897" d="M66 656v182l774 -348v-158l-774 -346v180l540 244z" />
<glyph unicode="?" horiz-adv-x="772" d="M488 203v-203h-212v203h212zM49 641q-2 87 21.5 157.5t67.5 121t108 77.5t141 27q70 0 129 -20t101.5 -58.5t65.5 -93.5t23 -125q0 -46 -12 -81.5t-31 -63.5t-43 -51q-22 -23 -44 -43q-18 -18 -36.5 -34t-33 -34t-23 -40t-8.5 -50v-54h-186v66q2 44 14.5 78t31.5 61 t42 49t45 44q16 16 33 34t31 38.5t23 43t7 48.5q-2 28 -11.5 51t-26 39t-39.5 25t-52 9q-40 0 -69.5 -18t-48 -48.5t-27 -70.5t-8.5 -84h-185z" />
<glyph unicode="@" horiz-adv-x="1192" d="M746 252q-30 2 -54 14t-40 37q-30 -23 -67 -39t-75 -16q-42 0 -78 16t-62 45t-40 67t-14 83q0 44 10 86.5t28.5 81.5t46 73t61.5 58.5t75 38.5t87 14q17 0 35.5 -4t35 -12.5t31.5 -21.5q16 -13 26 -31l18 50h125l-111 -366q-3 -12 -4.5 -24t-0.5 -22t5 -17t14 -7 q27 0 56.5 19t54.5 51t41 76t16 94q0 78 -28.5 137.5t-77 99.5t-111.5 60.5t-133 20.5q-56 0 -107 -15t-95 -41t-80 -63t-61 -82t-38.5 -97t-13.5 -108t14.5 -106.5t40.5 -94.5t63 -79.5t81.5 -61.5t96 -40t105.5 -14q46 0 92.5 7t89.5 23t81.5 41.5t68.5 62.5h154 q-44 -68 -100 -116t-119 -79.5t-131 -46t-138 -14.5q-77 0 -147 18t-130.5 52t-110.5 81t-85 106t-54 127.5t-19 143.5q0 73 19 140.5t54.5 125.5t85 105t109.5 81t129 52t143 18q67 0 130 -14.5t118 -42t100.5 -66.5t78.5 -88t51 -106t18 -121q0 -59 -17 -108.5t-46 -89 t-66 -69t-78 -48.5t-81 -28t-76 -7zM626 690q-26 0 -49 -10t-43 -27.5t-35 -40.5t-25 -48t-16 -50.5t-6 -48.5q0 -20 6.5 -37t18 -29.5t26.5 -19.5t33 -7q22 0 43 11t39 29t33 41.5t25.5 49t16 51.5t5.5 48q0 16 -5.5 32t-15 28t-23.5 20t-28 8z" />
<glyph unicode="A" horiz-adv-x="987" d="M381 1000h233l373 -1000h-231l-76 223h-375l-77 -223h-228zM362 387h260l-126 367h-2z" />
<glyph unicode="B" horiz-adv-x="973" d="M496 592q46 0 78 8.5t52 24t30 37.5t10 48q0 36 -14 59t-37 35t-54 17t-65 5h-187v-234h187zM459 1000q33 0 72 -1t78 -5t74 -12t61 -24q27 -16 51.5 -38t43.5 -50t30 -61.5t11 -73.5q0 -34 -8 -63.5t-22 -55t-34 -46t-44 -36.5q34 -16 62 -39.5t48 -53t31 -64.5t11 -72 q0 -38 -10 -75.5t-30 -71.5t-49 -63t-67.5 -50t-85.5 -33q-46 -12 -102 -12h-488v1000h367zM561 174q36 0 63 10t45.5 28t27.5 43t9 54q0 33 -15 56.5t-39 38t-55 21.5t-63 7h-225v-258h252z" />
<glyph unicode="C" horiz-adv-x="1020" d="M758 664q-6 38 -25.5 70t-49 55.5t-67.5 36.5q-38 14 -78 14q-74 0 -125.5 -29t-84 -77t-47.5 -110t-15 -128q0 -42 6.5 -82.5t20.5 -77t35.5 -67.5t52 -54t70 -36t87.5 -13q51 0 90.5 16.5t68.5 46t46 70.5t23 90h213q-8 -94 -43.5 -169.5t-93 -128.5t-135 -82 t-169.5 -29q-77 0 -143.5 18t-121 51t-97 80t-71 104.5t-43.5 124t-15 138.5q0 74 15 142t43.5 126.5t71 106.5t97 82t120.5 53q66 18 144 18q82 0 156.5 -24t132.5 -70t96 -113t48 -153h-213z" />
<glyph unicode="D" horiz-adv-x="999" d="M465 174q18 0 46 4t59 16t62 35t55.5 59.5t40.5 89t16 126.5t-15 133t-47.5 100.5t-85 64t-127.5 22.5h-162v-650h158zM454 1000q120 0 214 -30t158 -89.5t97 -149t33 -209.5q0 -125 -28.5 -222.5t-90 -163.5t-156.5 -101t-227 -35h-362v1000h362z" />
<glyph unicode="E" horiz-adv-x="868" d="M832 1000v-181h-525v-219h487v-176h-487v-246h527v-178h-742v1000h740z" />
<glyph unicode="F" horiz-adv-x="817" d="M798 1000v-181h-491v-217h428v-178h-428v-424h-215v1000h706z" />
<glyph unicode="G" horiz-adv-x="1075" d="M817 102q-28 -36 -61.5 -59.5t-69 -37.5t-73 -19.5t-73.5 -5.5q-77 0 -143.5 18t-121 51t-97 80t-71 104.5t-43.5 124t-15 138.5q0 74 15 142t43.5 126.5t71 106.5t97 82t120.5 53q66 18 144 18q51 0 100.5 -10.5t94.5 -31t84 -50.5t69 -69t49 -87t25 -104h-210 q-9 42 -28.5 73t-47.5 52t-62 32t-74 11q-49 0 -88 -13.5t-69.5 -37t-52 -56t-35 -71t-20.5 -80.5t-7 -86q0 -42 7 -82.5t20.5 -77t35 -67.5t52 -54t70 -36t87.5 -13q50 0 92 13t73 40t50 66t23 92h-221v176h420v-553h-139z" />
<glyph unicode="H" horiz-adv-x="1024" d="M307 1000v-398h410v398h215v-1000h-215v422h-410v-422h-215v1000h215z" />
<glyph unicode="I" horiz-adv-x="426" d="M320 1000v-1000h-214v1000h214z" />
<glyph unicode="J" horiz-adv-x="764" d="M672 324q0 -32 -4 -70t-16 -76t-35 -73t-60 -62t-91 -43t-128 -16q-42 0 -82 7.5t-77 24t-67.5 41.5t-53 60t-35.5 79t-13 99v86h199v-45q0 -36 5.5 -67t19.5 -53t38.5 -35t63.5 -13q44 0 67.5 16t34.5 40t12.5 53.5t1.5 56.5v666h220v-676z" />
<glyph unicode="K" horiz-adv-x="946" d="M92 1000h222v-414l388 414h271l-385 -396l406 -604h-254l-302 450l-124 -128v-322h-222v1000z" />
<glyph unicode="L" horiz-adv-x="792" d="M309 1000v-812h473v-188h-690v1000h217z" />
<glyph unicode="M" horiz-adv-x="1241" d="M92 1000h304l230 -686h2l218 686h303v-1000h-205v708h-4l-240 -708h-158l-241 702h-2v-702h-207v1000z" />
<glyph unicode="N" horiz-adv-x="1030" d="M92 1000h215l422 -670h2v670h207v-1000h-217l-420 670h-2v-670h-207v1000z" />
<glyph unicode="O" horiz-adv-x="1077" d="M258 500q0 -41 7 -81.5t21 -77.5t36.5 -68.5t53.5 -55t71 -36.5q39 -13 89 -13t91 13t73 36.5t54 55t37 68.5t21.5 77t6.5 82q0 41 -6.5 81.5t-21.5 77.5t-37 69t-54 55.5t-72 36.5q-42 14 -92 14t-89.5 -13.5t-70.5 -37t-53.5 -55.5t-36.5 -69t-21 -77.5t-7 -81.5z M41 500q0 68 13.5 133t41 123t69 107t96.5 84t124 55t151 20q84 0 153.5 -20t125 -55t97.5 -84t69.5 -107t41 -123t13.5 -133t-13.5 -133t-41 -122.5t-69.5 -106t-97.5 -83.5t-125 -54t-153.5 -19q-83 0 -151.5 19t-123.5 54t-96.5 83.5t-69 106t-41 122.5t-13.5 133z" />
<glyph unicode="P" horiz-adv-x="921" d="M502 555q42 -1 73 8t51 26.5t30 42t10 54.5t-10 54.5t-30 42t-51 27t-73 9.5h-195v-264h195zM545 1000q84 0 146.5 -21t104.5 -61.5t63 -99t21 -132.5t-21 -131t-63 -95t-105 -58t-146 -19h-238v-383h-215v1000h453z" />
<glyph unicode="Q" horiz-adv-x="1077" d="M766 24q-51 -23 -107.5 -34.5t-122.5 -11.5q-83 0 -151.5 19t-123.5 54t-96.5 83t-69 106t-41 123t-13.5 133t13.5 133.5t41 123.5t69 106.5t96.5 83.5t124 55t151 20q84 0 153.5 -20t125 -55t97.5 -83.5t69.5 -106.5t41 -123.5t13.5 -133.5q0 -49 -7 -97.5t-22 -93.5 t-37 -86t-50 -75l130 -101l-124 -141zM258 496q0 -41 7 -81.5t21 -77.5t36.5 -68.5t53.5 -55t71 -36.5q39 -13 89 -13q12 0 24 1t22 1l-70 57l123 137l121 -94q36 48 50 106q13 60 13 124q0 41 -6.5 81.5t-21.5 77.5t-37 69t-54 55.5t-72 36.5q-42 14 -92 14t-89.5 -13.5 t-70.5 -37t-53.5 -55.5t-36.5 -69t-21 -77.5t-7 -81.5z" />
<glyph unicode="R" horiz-adv-x="973" d="M580 1000q79 0 141 -20t104.5 -56t65.5 -88.5t23 -118.5q0 -38 -5 -71.5t-16.5 -62.5t-31 -54t-48.5 -43q22 -17 36.5 -37.5t22.5 -44.5t13 -50t8 -55q2 -43 3 -83t7.5 -77t22.5 -71.5t47 -67.5h-231q-22 27 -32.5 57.5t-15 63.5t-6.5 69t-8 74q-4 24 -10 48t-17.5 43 t-32 31t-52.5 12h-256v-398h-218v1000h486zM522 572q34 0 66 6t56.5 21.5t39 40t14.5 60.5q0 24 -7.5 46t-23 38t-39.5 25.5t-56 9.5h-260v-247h210z" />
<glyph unicode="S" horiz-adv-x="921" d="M248 338q0 -50 18 -85t49 -58t71 -33t83 -10q20 0 42 2t43.5 7t41.5 14t35.5 23t24.5 34q10 18 10 44t-12 46t-33 34.5t-49.5 25t-61.5 19.5t-69 17q-37 8 -73 18q-38 10 -74 22t-69 28.5t-62 37.5t-49.5 49.5t-32 64.5t-11.5 83q0 51 15 93.5t41 76t62 58.5t77.5 42 t87 25t89.5 8q52 0 102.5 -8t95 -25t82 -44t65 -63t42.5 -83t15 -105h-213q-2 45 -18.5 75t-42.5 47.5t-60.5 24.5t-73.5 7q-27 0 -54.5 -6t-49.5 -19t-36 -35q-14 -20 -14 -52q0 -19 5 -33.5t17 -25.5t33 -20t54 -20t79 -23q48 -12 110 -28q18 -4 47 -12t62.5 -21t67 -34 t60.5 -52t44 -73t17 -99q0 -69 -27 -128t-79.5 -102t-130.5 -67t-180 -24q-56 0 -109 9.5t-100.5 29t-87.5 49.5t-69 70.5t-45 91t-15 112.5h213z" />
<glyph unicode="T" horiz-adv-x="821" d="M12 809v191h795v-191h-291v-809h-217v809h-287z" />
<glyph unicode="U" horiz-adv-x="1036" d="M942 375q0 -98 -28 -171.5t-81 -122.5t-130 -73t-177 -24q-103 0 -183.5 22.5t-135.5 70.5t-84 122t-29 176v625h215v-625q0 -103 55 -157q54 -54 162 -54q100 0 150.5 54t50.5 157v625h215v-625z" />
<glyph unicode="V" horiz-adv-x="897" d="M342 0l-342 1000h234l216 -691l218 691h229l-346 -1000h-209z" />
<glyph unicode="W" horiz-adv-x="1333" d="M1052 0h-216l-170 672h-4l-166 -672h-224l-264 1000h220l159 -676h2l174 676h205l172 -684h2l164 684h217z" />
<glyph unicode="X" horiz-adv-x="942" d="M18 1000h262l189 -322l199 322h250l-322 -488l342 -512h-264l-205 338l-215 -338h-254l336 512z" />
<glyph unicode="Y" horiz-adv-x="989" d="M606 0h-219v406l-385 594h260l240 -394l233 394h252l-381 -594v-406z" />
<glyph unicode="Z" horiz-adv-x="868" d="M553 809h-471v191h758v-164l-533 -648h529v-188h-822v160z" />
<glyph unicode="[" horiz-adv-x="446" d="M299 889v-1026h147v-177h-352v1379h352v-176h-147z" />
<glyph unicode="\" horiz-adv-x="557" d="M178 1024l410 -1044h-203l-413 1044h206z" />
<glyph unicode="]" horiz-adv-x="446" d="M0 889v176h352v-1379h-352v177h148v1026h-148z" />
<glyph unicode="^" horiz-adv-x="925" d="M528 1006l334 -668h-168l-231 456l-225 -456h-174l336 668h128z" />
<glyph unicode="_" horiz-adv-x="702" d="M702 -66v-137h-702v137h702z" />
<glyph unicode="`" horiz-adv-x="502" d="M282 1052l160 -264h-149l-240 264h229z" />
<glyph unicode="a" horiz-adv-x="778" d="M508 338q-12 -12 -30 -20t-40 -13.5t-45.5 -10t-46.5 -8.5q-22 -4 -43 -9t-37 -14t-25 -23q-9 -16 -9 -40q0 -28 9 -45t25.5 -26t38 -12t45.5 -3q38 0 64.5 9t44 23t27.5 32t15 36t6 34t1 28v62zM526 68q-23 -26 -52.5 -43t-62.5 -27t-67 -14t-68 -4q-50 0 -94 13t-77 40 t-51.5 69t-18.5 98q0 62 20.5 101t54.5 62t78 34q42 11 88 19t88 15t74 18t51 27.5t19 43.5q0 30 -10 47.5t-27 27t-40.5 11.5t-49.5 2q-28 0 -50.5 -6t-39.5 -19t-27 -34t-12 -51h-196q3 47 17.5 83.5t38.5 63.5t56 46t68 30.5t75.5 17t79.5 5.5q36 0 73 -3t72 -11 t65.5 -22.5t53.5 -37t36 -55.5t13 -77v-360q0 -18 6 -26t15.5 -8t21 7t21.5 17v-156q-16 -12 -30 -19t-28 -11t-29 -5t-32 -1q-46 0 -79.5 24t-43.5 68z" />
<glyph unicode="b" horiz-adv-x="850" d="M262 0h-190v1000h200v-344h2q22 28 49 46t55.5 28.5t57 15t56.5 4.5q54 0 98.5 -15t80.5 -40t63 -61t45 -78t27 -89t9 -97t-9 -99t-27 -92t-45 -80t-63.5 -63t-82.5 -41t-100 -15q-34 0 -65 5t-59 17t-52 32t-46 50h-4v-84zM266 366q0 -45 8 -87.5t28 -75.5t53 -52.5 t83 -19.5q46 0 79.5 20.5t55 54t31.5 75t10 83.5q0 46 -9 88t-29.5 74.5t-54 52t-83.5 19.5t-82.5 -19.5t-52.5 -52t-28.5 -74.5t-8.5 -86z" />
<glyph unicode="c" horiz-adv-x="770" d="M540 438q-9 70 -39.5 106t-90.5 36q-50 0 -83 -19.5t-53 -51t-28 -72.5t-8 -83q0 -38 8 -75t27 -66t49 -47t74 -18q32 0 59 11t47 32t32 53q13 32 17 72h201q-16 -78 -45 -140.5t-73 -105.5t-103 -65.5t-135 -22.5q-90 0 -158 27.5t-113.5 77t-68.5 117.5t-23 150t22 153 t67.5 124t114.5 84t163 31q66 0 124 -19t104 -57t76 -96t38 -136h-202v0z" />
<glyph unicode="d" horiz-adv-x="850" d="M588 84h-4q-20 -30 -44.5 -50t-52 -32t-58.5 -17t-67 -5q-55 0 -100.5 15t-82 41t-63.5 63t-45 80t-27 92t-9 99t9 97t27 89t45 78t63 61t80.5 40t98.5 15q27 0 56 -4.5t57.5 -15t54.5 -28.5q28 -18 50 -46h2v344h200v-1000h-190v84zM584 366q0 44 -9 86t-29 74.5t-53 52 t-81 19.5q-49 0 -83 -19.5t-54.5 -52t-29.5 -74.5t-9 -88q0 -42 10 -83.5t31.5 -75t55 -54t79.5 -20.5q50 0 83 19.5t53 52.5t28 75.5t8 87.5z" />
<glyph unicode="e" horiz-adv-x="801" d="M236 309q4 -95 50 -140.5t130 -45.5q30 0 57 8.5t48 22t35 30.5q16 18 20 35h178q-22 -66 -55 -112.5t-76.5 -76.5t-97 -44t-115.5 -14q-87 0 -156.5 28t-118 79.5t-74.5 122.5q-26 70 -26 156q0 82 27.5 153t76.5 123t118 82t153 30q62 0 114 -17t92.5 -47t70.5 -70.5 t48.5 -89t26.5 -102.5t4 -111h-530zM576 436q-14 77 -56 117.5t-116 40.5q-32 0 -57 -8t-43 -20.5t-31 -29t-21 -34t-12 -35t-4 -31.5h340z" />
<glyph unicode="f" horiz-adv-x="438" d="M16 584v143h92v82q0 49 16 87t46 63.5t73.5 39t100.5 13.5q18 0 45 -4.5t59 -18.5v-149q-13 4 -27.5 7t-27.5 4t-24 1h-17q-20 0 -31.5 -12t-11.5 -37v-76h115v-143h-115v-584h-201v584h-92z" />
<glyph unicode="g" horiz-adv-x="833" d="M762 12q0 -31 -5 -68t-19 -74.5t-40 -72.5t-68.5 -61.5t-103.5 -43t-145 -16.5q-36 0 -72.5 6t-71.5 19t-66 32t-55 46t-39 62t-17 79h198q7 -29 21.5 -49t34.5 -32.5t44 -17.5t52 -5q42 0 72 14t50 39t29 60t9 77v84q-23 -34 -48.5 -54t-52.5 -31t-57 -14t-62 -3 q-84 0 -143.5 30t-98 82t-56 122t-17.5 148q0 50 9.5 97t27.5 89t44.5 77t62 60.5t78.5 40t95 14.5q35 0 65.5 -5t57 -17t50 -31t45.5 -48v80h192v-715zM400 144q43 0 74.5 18t52.5 47t32 67t11 78q0 46 -9 89t-28.5 76t-52 52t-80.5 19q-43 0 -74.5 -18t-51.5 -47.5 t-29 -68.5t-9 -81t8 -83.5t27 -74.5t50.5 -53t78.5 -20z" />
<glyph unicode="h" horiz-adv-x="823" d="M72 1000h190v-355h4q24 30 50 50.5t54 31.5t57 16t61 5q80 0 131 -22t81 -61.5t42 -95t12 -123.5v-446h-201v410q0 90 -29 135t-98 45q-40 0 -69 -12t-48 -37t-28 -65t-9 -95v-381h-200v1000z" />
<glyph unicode="i" horiz-adv-x="344" d="M72 815v185h200v-185h-200zM272 727v-727h-200v727h200z" />
<glyph unicode="j" horiz-adv-x="364" d="M293 -96q0 -54 -14.5 -93.5t-42.5 -65t-67 -37t-87 -11.5q-20 0 -47 2.5t-53 5.5v172q20 -2 33 -3.5t23 -2t17 -0.5h15q12 0 17 10.5t5 38.5v807h201v-823zM92 815v185h201v-185h-201z" />
<glyph unicode="k" horiz-adv-x="735" d="M270 1000v-490l236 217h260l-295 -268l313 -459h-223l-229 330l-62 -56v-274h-198v1000h198z" />
<glyph unicode="l" horiz-adv-x="362" d="M280 1000v-1000h-198v1000h198z" />
<glyph unicode="m" horiz-adv-x="1253" d="M72 727h188v-82h2q23 26 47.5 45t51.5 31.5t58 18.5t67 6q34 0 65 -7t59 -21t50 -37t36 -57q16 24 38.5 46t50 39t60.5 27t71 10q58 0 107 -14t84 -45.5t55 -81t20 -119.5v-486h-199v412q0 36 -3.5 68t-15.5 56t-37 38t-67 14t-68 -16t-40.5 -42t-19.5 -58t-5 -66v-406 h-201v408v42.5t-3 41.5t-9.5 37.5t-20 30.5t-35.5 20q-20 8 -52 8q-10 0 -24 -2.5t-29 -9t-30 -18.5t-26.5 -30t-19 -44.5t-7.5 -61.5v-422h-198v727z" />
<glyph unicode="n" horiz-adv-x="825" d="M72 727h190v-82h4q24 30 50 50.5t54 31.5t57 16t61 5q80 0 131 -22t81 -61.5t42 -95t12 -123.5v-446h-201v410q0 90 -29 135t-98 45q-40 0 -69 -12t-48 -37t-28 -65t-9 -95v-381h-200v727z" />
<glyph unicode="o" horiz-adv-x="823" d="M37 362q0 87 26.5 157.5t75.5 121t118 78t155 27.5t155.5 -27.5t118.5 -78t75.5 -120.5t26.5 -158q0 -87 -26.5 -157.5t-75.5 -120.5t-118.5 -77t-155.5 -27q-85 0 -154.5 27t-118.5 77t-75.5 120.5t-26.5 157.5zM238 362q0 -44 8 -84.5t28 -72t54 -51.5q34 -19 84 -19 q52 0 86 19.5t54.5 51t29.5 72.5q8 40 8 84t-8.5 85t-29 73t-54.5 51t-86 19q-50 0 -84 -19t-54 -51t-28 -73t-8 -85z" />
<glyph unicode="p" horiz-adv-x="850" d="M262 643h4q21 30 44.5 50t51.5 32.5t59 17.5t67 5q55 0 100.5 -15t82 -42t63.5 -63t45 -80t27 -92q9 -50 9 -100t-9 -96.5t-27 -89t-45 -77.5t-63 -61t-81 -40q-44 -14 -98 -14q-27 0 -56 4t-57.5 14t-54.5 28q-28 18 -50 46h-2v-342h-200v999h190v-84zM266 360 q0 -44 8.5 -86t28.5 -74t53 -52q32 -19 82 -19q49 0 83 19.5t54.5 52t29.5 74.5q9 41 9 87q0 42 -10 84t-31.5 75t-55 54t-79.5 21q-50 0 -83 -20t-53 -52.5t-28 -75t-8 -88.5z" />
<glyph unicode="q" horiz-adv-x="850" d="M588 727h190v-999h-200v342h-2q-22 -28 -49 -46t-55.5 -28t-57 -14t-56.5 -4q-54 0 -98.5 14t-80.5 40t-63 61t-45 77.5t-27 89.5q-9 46 -9 96t9 99t27 93t45 80t63.5 63t82.5 42t100 15q35 0 66.5 -5t59 -17.5t51.5 -32.5q25 -20 45 -50h4v84zM584 360q0 46 -8 88.5 t-28 75t-53 52.5t-83 20q-46 0 -79.5 -21t-55 -54t-31.5 -75t-10 -84q0 -46 9 -87.5t29.5 -74t54 -52t83.5 -19.5q49 0 81.5 19.5t52.5 51.5t29 74t9 86z" />
<glyph unicode="r" horiz-adv-x="524" d="M264 727v-99q20 26 46 47.5t57.5 36.5t68 22.5t78.5 7.5v-195q-68 4 -115 -11t-75 -44.5t-41 -72.5t-13 -95v-324h-198v727h192z" />
<glyph unicode="s" horiz-adv-x="739" d="M223 236q1 -32 14 -54.5t34 -36.5t48 -20t56 -6q22 0 44.5 4t41.5 13.5t31 26.5t12 44q0 22 -15 37t-44 26.5t-70 21.5t-95 22q-43 9 -84 22.5t-73.5 36.5t-52 56t-19.5 81q0 46 12.5 81t34.5 61t52 43t65 27.5t73 15t76 4.5q59 0 114.5 -11t98.5 -38t71 -71t34 -110 h-186q-2 28 -14 46t-30 28t-42 14t-50 4q-17 0 -36 -1.5t-35.5 -8t-27.5 -18.5t-11 -34q0 -27 19 -42.5t50 -25.5t71.5 -18t82.5 -18q44 -10 85.5 -24.5t73.5 -38t51 -57.5t19 -84q0 -48 -13 -85t-35.5 -65t-54 -48t-68 -32t-77 -17t-82.5 -5t-82 5t-77 18t-68.5 32.5 t-55 47.5t-38 65.5t-16.5 85.5h188z" />
<glyph unicode="t" horiz-adv-x="459" d="M428 727v-143h-114v-386q0 -7 2 -14.5t6.5 -13.5t12.5 -10q7 -4 19 -4h94v-156h-126q-56 0 -95 7.5t-64 27.5t-37 55t-12 90v404h-92v143h92v215h200v-215h114z" />
<glyph unicode="u" horiz-adv-x="837" d="M760 0h-190v82h-5q-20 -30 -45.5 -49t-54.5 -31t-60 -17t-61 -5q-80 0 -131.5 21.5t-81.5 61t-41 95.5q-12 54 -12 122v447h200v-409q0 -46 7 -80t22 -56t39 -34q26 -11 60 -11q40 0 69 12t47.5 37.5t27.5 64.5t9 95v381h201v-727z" />
<glyph unicode="v" horiz-adv-x="741" d="M473 0h-203l-262 727h213l154 -483h2l153 483h203z" />
<glyph unicode="w" horiz-adv-x="1147" d="M897 0h-185l-140 488h-2l-134 -488h-186l-242 727h211l133 -477h4l121 477h195l122 -475h2l136 475h204z" />
<glyph unicode="x" horiz-adv-x="721" d="M244 383l-236 344h224l128 -197l128 197h216l-235 -340l258 -387h-217l-154 236l-151 -236h-213z" />
<glyph unicode="y" horiz-adv-x="766" d="M450 -119q-16 -44 -37.5 -76t-52 -52.5t-70.5 -29.5t-94 -9q-31 0 -61.5 2t-62.5 6v159l60 -6q28 -3 58 -2q27 3 45.5 20t27.5 40t9 49t-8 48l-256 697h211l168 -520h2l164 520h205z" />
<glyph unicode="z" horiz-adv-x="731" d="M53 150l371 428h-354v149h600v-147l-375 -430h385v-150h-627v150z" />
<glyph unicode="{" horiz-adv-x="524" d="M402 899q-7 0 -12 -6.5t-7.5 -17t-4 -24t-1.5 -27.5v-261q0 -30 -7 -57.5t-18 -51t-24.5 -43t-26.5 -34.5q16 -12 29.5 -28.5t24 -39.5t16.5 -54t6 -71v-260q0 -13 1.5 -25.5t4 -23t7 -17t12.5 -6.5h94v-166h-124q-33 0 -67.5 14.5t-63.5 43t-47 70.5t-18 98v252 q0 28 -9 50t-24.5 37t-36 23t-44.5 8v183q24 0 44.5 9.5t36 25.5t24.5 38t9 46v254q0 54 18 96.5t47 71.5t64 44t67 15h124v-166h-94z" />
<glyph unicode="|" horiz-adv-x="348" d="M266 1100v-1395h-184v1395h184z" />
<glyph unicode="}" horiz-adv-x="526" d="M28 899v166h124q33 0 67.5 -15t63.5 -44t47 -71.5t18 -96.5v-254q0 -24 9 -46t25 -38t36.5 -25.5t44.5 -9.5v-183q-24 0 -44.5 -8t-36.5 -23t-25 -37t-9 -50v-252q0 -56 -18 -98t-47 -70.5t-64 -43t-67 -14.5h-124v166h95q7 0 12 6.5t7.5 17t4 23t1.5 25.5v260q0 40 6 71 t16 54t24 39t29 29q-13 14 -26.5 34t-24 43.5t-17.5 51t-7 57.5v261q0 14 -1.5 27.5t-4 24t-7.5 17t-12 6.5h-95z" />
<glyph unicode="~" horiz-adv-x="833" d="M778 366q-22 -29 -42 -55.5t-45 -46.5t-56 -31.5t-72 -11.5q-26 0 -53.5 7.5t-53.5 19.5t-52 25.5t-50.5 25t-47.5 19.5t-44 8q-12 0 -23 -7t-24 -22t-29 -38t-40 -56l-88 125q12 30 30.5 57t44.5 48t60.5 33.5t76.5 12.5q28 0 57 -7.5t57 -19.5t54 -25t49.5 -25 t43 -19.5t34.5 -7.5q13 0 28 9.5t31 26.5t31.5 38t28.5 45z" />
<glyph unicode="&#xa2;" horiz-adv-x="817" d="M362 -2q-74 8 -130.5 40t-95 83.5t-58.5 119t-20 144.5t20.5 144t60 120t95.5 89t128 52v136h128v-136q54 -7 99.5 -26.5t81 -55t59.5 -87.5q24 -51 34 -123h-170q-14 56 -39 91t-65 46v-479q22 8 40 24t32 37t23 48t15 57h166q-8 -58 -28.5 -113t-54.5 -100t-82.5 -75 t-110.5 -38v-146h-128v148zM234 385q0 -38 7.5 -75t23.5 -68.5t40.5 -54.5t56.5 -33v479q-34 -12 -58.5 -36.5t-40 -57.5t-22.5 -72.5t-7 -81.5z" />
<glyph unicode="&#xa3;" horiz-adv-x="837" d="M110 559q-17 34 -26.5 74t-9.5 88q0 46 13 86.5t36 73.5t55 59t71 44t82 27t89 9q84 0 150 -22.5t112 -70t70 -121t24 -175.5h-194q-4 112 -41 168.5t-113 56.5q-32 0 -60.5 -11.5t-49.5 -31t-33.5 -44.5t-12.5 -54q0 -22 4.5 -42.5t11.5 -40t16.5 -38t19.5 -35.5h212 v-139h-147q3 -12 6 -26q3 -16 3 -28q0 -51 -12.5 -98.5t-37.5 -81.5h4q40 0 74 -7t62 -15q19 -6 32.5 -10.5t24.5 -7t21 -3.5t22 -1q22 0 50 18.5t62 52.5l98 -139q-32 -27 -61 -44.5t-57 -27.5t-55 -14t-55 -4q-40 0 -75 8t-71 18q-34 10 -63 16.5t-62 6.5q-31 0 -67 -16.5 t-74 -40.5l-117 147q33 20 63 45.5t53 53.5t36.5 59t13.5 63q0 17 -5.5 37.5t-15.5 38.5h-147v139h71z" />
<glyph unicode="&#xa5;" horiz-adv-x="989" d="M606 354h242v-141h-242v-213h-219v213h-237v141h237v52l-17 24h-220v140h130l-278 430h260l240 -394l233 394h252l-277 -430h138v-140h-228l-14 -24v-52z" />
<glyph unicode="&#xa9;" horiz-adv-x="1108" d="M33 494q0 72 19 139t53.5 124t82 104t105.5 80.5t124.5 52t137.5 18.5t137 -18.5t124 -52t106 -80.5t82 -104t52.5 -124t18.5 -139q0 -74 -18.5 -142t-52.5 -125.5t-82 -104t-106 -79.5t-124 -50t-137 -17t-137.5 17t-124.5 50t-105.5 79.5t-82 104t-53.5 125t-19 142.5z M164 494q0 -88 29 -163t81 -129t124 -85t157 -31q54 0 104.5 14t94 40t79 62.5t60.5 82t39 97.5q14 54 14 112t-14 110.5t-39 97t-60.5 81t-79 62t-93.5 39t-105 13.5q-57 0 -108 -13.5t-94.5 -39t-78 -62t-59.5 -81t-38 -97t-13 -110.5zM819 430q-12 -58 -35.5 -102.5 t-56.5 -74.5t-74 -45.5t-88 -15.5q-66 0 -119.5 23t-91.5 64t-59 96t-21 119q0 65 20.5 119.5t58 93.5t90.5 61t118 22q49 0 91.5 -14t76 -42t56.5 -71t34 -100h-125q-4 24 -15.5 45.5t-28 37.5t-39 25t-48.5 9q-38 0 -67.5 -14t-49.5 -38.5t-30 -58t-10 -73.5 q0 -37 10.5 -71.5t31 -60.5t50.5 -41.5t67 -15.5q26 0 47.5 9t37.5 25t27 38.5t15 50.5h127z" />
<glyph unicode="&#xab;" horiz-adv-x="758" d="M66 465l272 215v-186l-131 -105l131 -100v-191l-272 218v149zM398 465l272 215v-186l-132 -105l132 -100v-191l-272 218v149z" />
<glyph unicode="&#xad;" horiz-adv-x="696" d="M643 473v-153h-590v153h590z" />
<glyph unicode="&#xae;" horiz-adv-x="1108" d="M33 494q0 72 19 139t53.5 124t82 104t105.5 80.5t124.5 52t137.5 18.5t137 -18.5t124 -52t106 -80.5t82 -104t52.5 -124t18.5 -139q0 -74 -18.5 -142t-52.5 -125.5t-82 -104t-106 -79.5t-124 -50t-137 -17t-137.5 17t-124.5 50t-105.5 79.5t-82 104t-53.5 125t-19 142.5z M534 532q22 0 42 2t35 9t24.5 20t9.5 35q0 16 -8 26.5t-20.5 16.5t-28.5 8.5t-31 2.5h-78v-120h55zM164 494q0 -88 29 -163t81 -129t124 -85t157 -31q54 0 104.5 14t94 40t79 62.5t60.5 82t39 97.5q14 54 14 112t-14 110.5t-39 97t-60.5 81t-79 62t-93.5 39t-105 13.5 q-57 0 -108 -13.5t-94.5 -39t-78 -62t-59.5 -81t-38 -97t-13 -110.5zM572 766q104 0 154 -42t50 -128q0 -32 -8 -58.5t-23 -47t-36 -34.5t-47 -22l136 -215h-144l-132 201h-43v-201h-133v547h226z" />
<glyph unicode="&#xbb;" horiz-adv-x="758" d="M360 316l-272 -218v191l131 100l-131 105v186l272 -215v-149zM692 316l-272 -218v191l131 100l-131 105v186l272 -215v-149z" />
<glyph unicode="&#xbc;" horiz-adv-x="1229" d="M1008 1000l-580 -1000h-146l580 1000h146zM966 242v147l-112 -147h112zM1180 242v-119h-78v-123h-136v123h-258v111l288 378h106v-370h78zM76 868q34 2 64 7t53 17t38.5 32.5t22.5 54.5h110v-613h-134v410q-17 -7 -34 -11.5t-35.5 -7.5t-39.5 -5t-45 -2v118z" />
<glyph unicode="&#xbd;" horiz-adv-x="1229" d="M742 358q0 54 16 101t45 80t71 52q40 19 92 19q44 0 85 -13t71 -38t48 -60.5t18 -80.5q0 -46 -17.5 -80t-45 -60t-62.5 -48t-69 -42q-24 -14 -48 -30t-49 -37h283v-121h-453q4 64 20.5 108t41.5 75t57 53t66 42q32 18 57 34t41.5 32t25 34t8.5 40q0 16 -6 29.5t-17 23 t-27 13.5q-16 6 -34 4q-22 -2 -37 -13t-25 -28t-15 -40t-5 -49h-136zM966 1000l-579 -1000h-145l579 1000h145zM76 868q34 2 64 7t53 17t38.5 32.5t22.5 54.5h110v-613h-134v410q-17 -7 -34 -11.5t-35.5 -7.5t-39.5 -5t-45 -2v118z" />
<glyph unicode="&#xbe;" horiz-adv-x="1229" d="M291 731q14 0 28.5 4.5t26.5 13.5t19 22t7 27q0 16 -6 27t-16.5 18t-24 10t-28.5 3q-44 0 -64 -23t-20 -65h-139q4 48 20.5 87t45 67t68 42.5t89.5 14.5q46 0 85 -11.5t67.5 -34.5t44.5 -57t16 -78q0 -29 -15 -56.5t-39 -49.5q39 -22 59.5 -59t20.5 -80q0 -49 -19.5 -86 t-52.5 -61.5t-76 -37t-89 -12.5t-88.5 11.5t-75.5 36.5t-53 64.5t-20 96.5h141q0 -24 6.5 -40.5t18.5 -26.5t29.5 -14.5t41.5 -4.5q18 0 35.5 5t31 14t22 22t8.5 29q0 20 -8.5 36t-22 26.5t-30.5 16t-36 5.5h-35v98h27zM966 242v147l-112 -147h112zM1180 242v-119h-78v-123 h-136v123h-258v111l288 378h106v-370h78zM1059 1000l-580 -1000h-145l580 1000h145z" />
<glyph unicode="&#xd7;" horiz-adv-x="807" d="M293 396l-240 256l117 108l232 -248l233 248l117 -108l-240 -256l240 -254l-117 -109l-233 247l-232 -247l-117 109z" />
<glyph unicode="&#xf7;" horiz-adv-x="833" d="M780 475v-157h-727v157h727zM301 110q0 24 9.5 46t25 38t36 26t44.5 10t45 -10t37 -26t25 -38t9 -46q0 -22 -9 -41.5t-25 -35t-36.5 -24.5t-43.5 -9t-44.5 8.5t-37.5 23.5t-25.5 35t-9.5 43zM301 684q0 24 9.5 45t25 37t36 25.5t44.5 9.5t45 -9.5t37 -25.5t25 -37t9 -45 q0 -23 -9 -43.5t-25 -36.5t-36.5 -25t-43.5 -9t-44.5 9t-37.5 25t-25.5 36.5t-9.5 43.5z" />
<glyph unicode="&#xe01;" horiz-adv-x="901" d="M426 678q-40 0 -71.5 -7.5t-54 -20t-36 -27.5t-18.5 -29q26 -24 38 -60q13 -38 13 -84v-450h-207v452q0 14 -3 29t-11 29.5t-22 28.5t-36 26q8 36 24 71.5t40 67.5t57 60t75 49t95 33t117 12q76 0 135 -14t103 -38t74.5 -58t49 -73t27.5 -83t9 -90v-502h-212v516 q0 29 -9 57.5t-31 51.5t-57.5 37.5t-88.5 15.5z" />
<glyph unicode="&#xe02;" horiz-adv-x="768" d="M282 0l-159 672h-103v168h283l113 -520l114 520h218l-199 -840h-267z" />
<glyph unicode="&#xe03;" horiz-adv-x="815" d="M102 272q0 50 2 91t12 75.5t31.5 64.5t61.5 60q9 7 19 15q8 7 18 14.5t20 15.5q-4 -2 -10.5 -3l-13 -2t-12.5 -2t-9 -1q-16 0 -37.5 3t-44.5 12t-45 25.5t-40 43t-29 64.5t-11 92h182q0 -17 3 -33t8 -28.5t14 -19.5t21 -7t21 6.5t15 18.5t8 28q3 17 3 35h184 q0 -54 -2 -96t-6.5 -76t-12.5 -61t-20 -50t-29 -44.5t-39 -43.5q-17 -17 -26.5 -38t-15 -43.5t-7 -46t-1.5 -44.5q0 -32 8 -56.5t22.5 -40.5t35 -25t44.5 -9q23 0 42.5 6.5t33.5 21t22 37.5t8 55v554h210v-568q0 -76 -26 -131t-69 -91t-100.5 -53t-120.5 -17 q-64 0 -122 18.5t-102.5 55t-71 91.5t-26.5 127z" />
<glyph unicode="&#xe04;" horiz-adv-x="930" d="M284 0h-206v496q0 46 8 90.5t26 85t47.5 74.5t73 59t101.5 39t133 14q74 0 132 -14t100.5 -39t72 -59t47 -74.5t25.5 -85t8 -90.5v-496h-209v512q0 29 -9.5 58.5t-30.5 53.5t-55 39t-81 15q-48 0 -82.5 -15t-56.5 -39t-33 -53.5t-11 -58.5v-78q23 23 49 40.5t55.5 29.5 t64.5 18t75 6v-180q-66 -2 -112 -19t-75 -48t-43 -73t-14 -96v-112z" />
<glyph unicode="&#xe05;" horiz-adv-x="938" d="M652 542q0 14 -2 31t-5 33t-9 30q-6 16 -16 26l-108 -70q-42 -30 -88 0l-110 68q-7 -12 -12.5 -27t-8.5 -31t-5 -31t-2 -29v-130q23 23 49 40.5t55.5 29t64.5 17.5t75 7v-180q-66 -2 -112 -19.5t-75 -48t-43 -73t-14 -95.5v-90h-208v508q0 56 11.5 111t41 101.5t79 81.5 t126.5 52l133 -88l129 86q79 -16 130 -50.5t80.5 -81t40.5 -101t11 -111.5v-508h-208v542v0z" />
<glyph unicode="&#xe06;" horiz-adv-x="907" d="M502 840v-166q0 -37 -10.5 -68t-28 -57.5t-40 -49.5t-46.5 -43q-18 -14 -29.5 -26t-18.5 -25t-10 -30t-3 -43q0 -32 13 -62t37 -53t58.5 -37t77.5 -14q26 0 47.5 8.5t37 24t23.5 37.5t8 48v556h212v-539q0 -70 -15 -129t-50 -101.5t-94.5 -65.5t-148.5 -23q-34 0 -65 8 t-58.5 23t-50.5 33.5t-41 39.5v-86h-203v305q0 33 0.5 58.5t3.5 46.5t9.5 38.5t18 34t30 33t45.5 35.5q28 20 45.5 33.5t27.5 27.5q-12 -3 -23 -4.5t-23 -1.5q-16 0 -38 3t-45 12t-45 25.5t-40 42.5t-29 63q-11 38 -11 88h187q0 -17 2.5 -33t7.5 -28.5t14 -19.5t21 -7 t21 6.5t15 18.5t8 28q3 17 3 35h193z" />
<glyph unicode="&#xe07;" horiz-adv-x="682" d="M348 178q5 -12 11.5 -17t15.5 -5t15 6t6 14v494h-114v170h322v-640q0 -58 -18 -100t-49 -68.5t-73 -39.5q-44 -12 -92 -12q-49 0 -85.5 11t-63 33t-45.5 52q-18 32 -32 70l-138 376h218z" />
<glyph unicode="&#xe08;" horiz-adv-x="827" d="M217 309h-103v173h258l80 -242q8 23 19 50.5t21 56t19 57t16 53.5t11 46t4 33q0 66 -34 104t-104 38q-58 0 -93 -34t-49 -99h-227q12 69 43.5 126.5t80.5 99t115 64.5t146 23q40 0 80 -6t77.5 -20.5t70.5 -38t57.5 -57t38.5 -79t14 -104.5q0 -28 -8 -66t-22.5 -83.5 t-33.5 -95.5t-40.5 -102.5t-44.5 -105t-44 -100.5h-237z" />
<glyph unicode="&#xe09;" horiz-adv-x="901" d="M56 570q8 59 33.5 111.5t72.5 91.5t115.5 62t162.5 23q77 0 135.5 -14t101 -38t71 -58t45.5 -74t24 -84t7 -90v-500h-204v86q-22 -23 -50.5 -42.5t-61 -33t-66.5 -20.5q-36 -8 -70 -8q-86 0 -143 23t-91 65.5t-48 101t-14 129.5v168h208v-183q0 -27 9 -48.5t26 -37 t41 -24t54 -8.5q51 0 88 15.5t61.5 43t36.5 65.5q12 36 12 80v144q0 28 -8 57t-28 52t-53 37t-83 14q-44 0 -75 -9t-51 -23t-32 -34q-12 -18 -16 -40h-210z" />
<glyph unicode="&#xe0a;" horiz-adv-x="807" d="M422 652v-6t-2 -5q32 6 54 20t36 37.5t20 58.5t6 83h212q0 -48 -4 -89t-16 -74t-33 -59t-56 -48q30 -18 47.5 -46t27.5 -57.5t12.5 -58t2.5 -50.5v-86q0 -50 -12.5 -91t-34.5 -74t-52 -57t-66 -39.5t-76 -23t-80 -7.5q-42 0 -83.5 8t-78.5 24.5t-68 41t-53.5 57.5 t-35.5 73t-13 88v66q0 32 2 57t7 44t12 34.5t17 30t23 29.5t29 35q22 26 36 45t15 39q2 14 -6.5 22t-22.5 8q-12 0 -25 -2t-30.5 -7t-42 -13t-57.5 -19v170q28 10 55.5 18t50.5 13t42 7.5t30 2.5q52 0 93 -12t69 -37t41 -62t8 -89zM520 358q0 36 -11.5 66t-32 51t-49.5 33 t-65 14q-10 -15 -21 -31q-11 -17 -25 -37q-12 -16 -18 -28t-9 -24t-3 -25q-2 -13 -2 -29v-64q0 -32 10 -56.5t27 -42t39 -26.5t48 -9q23 0 43.5 7t35.5 22t24 39t9 56v84z" />
<glyph unicode="&#xe0b;" horiz-adv-x="827" d="M473 840q0 -62 -4.5 -109t-12.5 -84q29 6 50 19.5t34 36.5t19 57t6 80h207q0 -48 -4 -87t-15 -71.5t-33 -59.5q-20 -26 -56 -48q32 -18 50 -46t28 -59t13 -61t3 -52v-84q0 -50 -12.5 -91.5t-35 -74t-53.5 -56.5t-67 -40t-76 -23t-82 -7q-63 0 -122.5 18.5t-105.5 55 t-74 91.5t-28 127q0 50 2 91t12 75.5t31.5 64.5t61.5 60q11 7 19 14q8 6 17 13.5t19 15.5q-4 -2 -10 -3t-13 -2t-12 -1h-8q-16 0 -37.5 3t-44.5 12t-45 25.5t-40 43t-29 64.5t-11 92h182q0 -17 3 -33t8 -28.5t14 -19.5t21 -7t21 6.5t15 18.5t8 28q3 17 3 35h184zM547 356 q0 34 -10 64t-28 53.5t-43.5 38t-55.5 16.5q-9 -16 -21 -30q-13 -14 -25 -29q-16 -18 -25 -38.5t-15 -43.5t-8 -46t-2 -44q0 -32 9 -56.5t25.5 -40.5t38 -25t45.5 -9t45 6.5t36.5 21t24.5 37.5t9 55v70z" />
<glyph unicode="&#xe0c;" horiz-adv-x="1333" d="M798 372q0 -44 11 -81t31 -64.5t50 -42.5q28 -16 66 -16q20 0 36.5 6t28 20t17.5 37t6 55v554h212v-539q0 -76 -12 -135.5t-42 -100.5t-80 -62t-128 -21q-31 0 -61.5 9t-57 24t-48.5 33q-23 19 -37 38v-86h-202v514q0 28 -8.5 56.5t-28 51t-51.5 37t-80 15.5 q-37 0 -65.5 -6.5t-48.5 -18t-33 -26.5t-19 -31q53 -50 53 -144v-286h86v-162h-295v450q0 14 -3 29t-11 29t-22 28t-36 25q8 36 24 71.5t40 68.5t56 61t72.5 49t91 33t110.5 12q72 0 128 -14t98 -38t71 -58t47 -74t26 -84t8 -90v-126z" />
<glyph unicode="&#xe0d;" horiz-adv-x="1333" d="M1048 133q-36 -31 -81 -49t-99 -18q-80 0 -133.5 21t-86 61.5t-46.5 100t-14 136.5v129q0 29 -8.5 57.5t-28 51.5t-51.5 37.5t-80 15.5q-34 0 -61.5 -7t-49 -18.5t-35.5 -26t-22 -28.5q26 -25 40 -63q15 -39 15 -85v-286h86v-162h-295v450q0 14 -3 29t-11 29.5t-22 28.5 t-36 26q8 36 24 71.5t40 68.5t56 61t72.5 49t91 33t110.5 12q72 0 128 -14t98 -38t71 -58t47 -74t26 -84t8 -90v-130q0 -66 23.5 -102t65.5 -36q38 0 67 18.5t49.5 50t30.5 71.5t10 84v384h212v-686q0 -85 -21 -160.5t-66 -131.5t-114 -88t-166 -32q-62 0 -118 17.5 t-100.5 53t-74.5 89.5t-37 128h201q4 -28 17 -50t31 -36.5t39 -22t40 -7.5q46 0 77 15t49.5 39.5t26.5 54t8 59.5v51z" />
<glyph unicode="&#xe0e;" horiz-adv-x="936" d="M858 -293h-192q-10 17 -26 34t-37 30t-51 22t-68 9q-34 0 -66.5 -7.5t-63.5 -22.5t-61.5 -38.5t-62.5 -57.5v187q22 22 50 40t60.5 31.5t68.5 21.5q37 7 75 7q54 0 94 -11.5t69 -25.5v590q0 29 -9.5 57.5t-31 51.5t-57 37.5t-88.5 15.5q-40 0 -71.5 -7.5t-54 -20 t-36 -27.5t-19.5 -29q13 -12 23 -25t16.5 -29.5t9.5 -38t3 -51.5v-450h-287v162h80v290q0 14 -3.5 29t-11.5 29.5t-22 28.5t-35 26q9 36 25 71.5t40 67.5t56.5 60t75 49t95 33t116.5 12q76 0 134.5 -14t102.5 -38t75 -58t50 -73t27 -83t8 -90v-795z" />
<glyph unicode="&#xe0f;" horiz-adv-x="936" d="M858 -299h-204q-2 16 -8 32.5t-14.5 30.5t-20 22.5t-25.5 8.5t-24.5 -8.5t-17 -22.5t-10.5 -30.5t-4 -32.5h-158q0 16 -4 32.5t-12.5 30.5t-20 23.5t-26.5 9.5q-16 0 -28 -9.5t-19.5 -23.5t-11.5 -31t-4 -32h-186q0 66 18 113.5t49 78.5t72 45.5t87 14.5q24 0 45.5 -5.5 t40 -14.5t34.5 -22t28 -27q11 14 25.5 25.5t31 20.5t35 14t37.5 5q28 0 49 -9.5t35 -21.5v598q0 29 -9.5 57.5t-31 51.5t-57 37.5t-88.5 15.5q-40 0 -71.5 -7.5t-54 -20t-36 -27.5t-19.5 -29q13 -12 23 -25t16.5 -29.5t9.5 -38t3 -51.5v-450h-287v162h80v290q0 14 -3.5 29 t-11.5 29.5t-22 28.5t-35 26q9 36 25 71.5t40 67.5t56.5 60t75 49t95 33t116.5 12q76 0 134.5 -14t102.5 -38t75 -58t50 -73t27 -83t8 -90v-801z" />
<glyph unicode="&#xe10;" horiz-adv-x="823" d="M314 -324q0 20 -4 37t-10 29t-16 18t-22 6q-13 0 -22.5 -7t-16.5 -19t-10.5 -28t-3.5 -36h-135q0 49 8 85t22.5 61t33 40.5t38.5 23.5t39.5 11t36.5 3q31 -2 58 -15q26 -13 42 -35q6 9 15 18.5t20 16t23 11t24 4.5t23 -4.5t21 -11t18 -14.5t14 -16v78h180v-256h-166 q0 20 -3 37t-10 29t-17 18t-23 6t-23.5 -7t-17.5 -19t-10 -28q-4 -18 -4 -36h-102zM217 309h-103v173h258l80 -242q8 23 19 50.5t21 56t19 57t16 53.5t11 46t4 33q0 66 -34 104t-104 38q-58 0 -93 -34t-49 -99h-227q12 69 43.5 126.5t80.5 99t115 64.5t146 23q32 0 65 -4 t66 -14q10 4 19 12t15.5 19t10 24t4.5 25h219q-1 -27 -7 -56.5t-19 -56.5t-32 -49.5t-46 -36.5q20 -32 31.5 -73.5t11.5 -94.5q0 -28 -8 -66t-22.5 -83.5t-33.5 -95.5t-40.5 -102.5t-44.5 -105t-44 -100.5h-237z" />
<glyph unicode="&#xe11;" horiz-adv-x="907" d="M484 840v-74q28 21 55 38.5t51.5 29.5t47 19t42.5 7q47 0 76.5 -14t45.5 -40t22 -62t6 -82v-662h-212v610v18.5t-1 17t-4 12t-9 4.5q-8 0 -25 -10t-39 -28t-49 -43t-55 -55q-34 -36 -57 -63t-38 -52.5t-21 -53t-6 -62.5v-295h-210v280q0 32 1 56t4.5 44t10 36t16.5 33 t26 36q14 19 36 43q26 30 46 50t32 34q-10 -5 -21 -7.5t-17 -2.5q-16 0 -38 3.5t-45 13t-45 25.5t-40 43t-29 64t-11 89h187q0 -17 2.5 -33t7.5 -28.5t14 -19.5t21 -7t21 6.5t15 18.5t8 28q3 17 3 35h175z" />
<glyph unicode="&#xe12;" horiz-adv-x="1419" d="M884 372q0 -44 11 -81.5t31 -65t50 -42.5q28 -15 66 -15q20 0 37 6t28 20t17 37t6 55v554h212v-539q0 -76 -12 -135.5t-43 -100.5t-83 -62t-133 -21q-28 0 -56.5 8t-53.5 23t-47 33.5t-38 39.5v-86h-200v526q0 34 -14 66t-46 57l-88 -53q-20 -11 -42 -12q-24 -2 -48 12 l-90 56q-32 -25 -47 -58.5t-15 -67.5v-260l112 113h-58v129h276v-125l-362 -383h-176v510q0 58 14 113t47 102t86 82t129 51l130 -86l130 84q74 -17 126 -51.5t84 -80.5t46 -101t14 -113v-138z" />
<glyph unicode="&#xe13;" horiz-adv-x="1333" d="M1256 0h-204v86q-16 -22 -37 -41t-45 -33t-51.5 -22t-56.5 -8q-80 0 -133 21t-84 62t-44 100.5t-13 135.5v215q0 28 -8.5 56.5t-28 51t-51.5 37t-80 15.5q-34 0 -61.5 -7t-49 -18.5t-35.5 -26t-22 -28.5q26 -25 40 -62q15 -38 15 -84v-288h86v-162h-295v452q0 14 -3 29 t-11 29t-22 28t-36 25q8 36 24 71.5t40 68.5t56 61t72.5 49t91 33t110.5 12q72 0 128 -14t98 -38t71 -58t47 -74t26 -84t8 -90v-214q0 -33 6 -55.5t18 -36.5t28 -20t37 -6q38 0 67 15.5t49.5 43t30.5 65.5q10 36 10 80v468h212v-840z" />
<glyph unicode="&#xe14;" horiz-adv-x="962" d="M404 379h-60v129h276v-125l-366 -383h-176v498q0 46 9 90.5t28.5 84.5t51 74t76.5 58.5t105 38.5t136 14q75 0 133.5 -14t103.5 -38.5t76 -58.5t50.5 -74t28 -84.5t8.5 -90.5v-498h-208v514q0 29 -10.5 58.5t-33.5 52.5t-59.5 38t-88.5 15q-53 0 -90.5 -15t-61.5 -38 t-35 -52.5t-11 -58.5v-250z" />
<glyph unicode="&#xe15;" horiz-adv-x="962" d="M286 526v-262l118 115h-60v129h276v-125l-366 -383h-176v510q0 58 14 113t47 102t86 82t129 51l130 -86l130 84q74 -17 126 -51.5t84 -80.5t46 -101t14 -113v-510h-208v526q0 34 -14 66t-46 57l-88 -53q-20 -11 -42 -12q-24 -2 -48 12l-90 56q-32 -25 -47 -58.5 t-15 -67.5z" />
<glyph unicode="&#xe16;" horiz-adv-x="901" d="M383 162v-162h-293v452q0 14 -3 29t-11 29.5t-22 28.5t-36 26q8 36 24 71.5t40 67.5t57 60t75 49t95 33t117 12q76 0 135 -14t103 -38t74.5 -58t49 -73t27.5 -83t9 -90v-502h-212v516q0 29 -9 57.5t-31 51.5t-57.5 37.5t-88.5 15.5q-40 0 -71.5 -7.5t-54 -20t-36 -27.5 t-18.5 -29q26 -24 38 -60q13 -38 13 -84v-288h86z" />
<glyph unicode="&#xe17;" horiz-adv-x="901" d="M278 840v-88q24 26 48.5 45t52 33t59.5 21t70 7q92 0 152 -23.5t97 -66t52 -100.5q15 -60 15 -130v-538h-208v553q0 27 -9 49t-25 37t-40 24t-54 9q-50 0 -88 -15.5t-63 -43t-38 -64.5t-13 -82v-467h-208v840h200z" />
<glyph unicode="&#xe18;" horiz-adv-x="856" d="M284 420v-166q0 -26 13 -43.5t34 -29t46 -16.5t51 -5q23 0 48.5 4t47.5 15t36 29t14 46q0 17 -2 30.5t-9 26t-20 23t-34.5 21.5t-54 22t-77.5 25q-63 16 -118 36t-95.5 47t-64 65t-23.5 89q1 40 14.5 72t37.5 56.5t55 41t67 27t74 15.5q40 5 78 5q76 0 141 -16t113.5 -52 t76 -94t27.5 -141h-209q-1 34 -12 57.5t-29.5 37.5t-44 21.5t-53.5 10.5q-23 2 -46 0.5t-41 -7t-29.5 -14t-11.5 -20.5q0 -10 11 -18.5t27 -16.5t37 -16t41 -14t38 -11t29 -8q54 -15 98.5 -29t80 -31.5t62 -39t44 -49.5t26 -65.5t8.5 -86.5q0 -48 -13.5 -87t-38 -69t-58 -52 t-73.5 -36t-84.5 -20t-90.5 -6q-70 0 -134 15t-112.5 47.5t-77 84t-28.5 123.5v166h208z" />
<glyph unicode="&#xe19;" horiz-adv-x="901" d="M622 0v108q-46 -65 -109 -95.5t-141 -30.5q-80 0 -136 27t-91 74t-51 109q-16 64 -16 134v514h206v-496q0 -38 10 -70t30 -54.5t52 -35t76 -12.5q29 0 58.5 10t52.5 34t37 62t14 94v468h210v-840h-202z" />
<glyph unicode="&#xe1a;" horiz-adv-x="901" d="M450 162q47 0 78.5 15t50.5 39t27 54t8 60v510h210v-496q0 -46 -7 -91t-24 -85t-44 -74t-69 -59t-98 -39q-58 -14 -132 -14q-75 0 -131.5 14t-98 39t-69 59t-43.5 74t-23 85t-7 91v496h206v-510q0 -30 8 -60t27.5 -54t51 -39t79.5 -15z" />
<glyph unicode="&#xe1b;" horiz-adv-x="901" d="M450 162q47 0 78.5 15t50.5 39t27 54t8 60v876h210v-862q0 -46 -7 -91t-24 -85t-44 -74t-69 -59t-98 -39q-58 -14 -132 -14q-75 0 -131.5 14t-98 39t-69 59t-43.5 74t-23 85t-7 91v496h206v-510q0 -30 8 -60t27.5 -54t51 -39t79.5 -15z" />
<glyph unicode="&#xe1c;" horiz-adv-x="964" d="M78 840h315v-172h-107v-390q0 -60 13 -88t35 -28q17 0 27 11.5t15.5 32t7 47.5t1.5 59v144h195v-144q0 -32 2 -59t8 -47.5t17 -32t30 -11.5q18 0 29.5 28t11.5 88v562h209v-594q0 -68 -16.5 -118t-46.5 -82t-72 -48t-94 -16q-56 0 -101 18t-75 56q-28 -34 -71 -54 t-99 -20q-53 0 -96.5 16t-74 48t-47 82t-16.5 118v594z" />
<glyph unicode="&#xe1d;" horiz-adv-x="964" d="M78 840h315v-172h-107v-390q0 -60 13 -88t35 -28q17 0 27 11.5t15.5 32t7 47.5t1.5 59v144h195v-144q0 -32 2 -59t8 -47.5t17 -32t30 -11.5q18 0 29.5 28t11.5 88v928h209v-960q0 -68 -16.5 -118t-46.5 -82t-72 -48t-94 -16q-56 0 -101 18t-75 56q-28 -34 -71 -54 t-99 -20q-53 0 -96.5 16t-74 48t-47 82t-16.5 118v594z" />
<glyph unicode="&#xe1e;" horiz-adv-x="1124" d="M639 840l137 -472l102 472h226l-224 -840h-178l-141 479l-139 -479h-178l-224 840h226l102 -476l138 476h153z" />
<glyph unicode="&#xe1f;" horiz-adv-x="1124" d="M639 840l137 -472l197 838h225l-318 -1206h-178l-141 479l-139 -479h-178l-224 840h226l102 -476l138 476h153z" />
<glyph unicode="&#xe20;" horiz-adv-x="936" d="M858 0h-211v516q0 29 -9.5 57.5t-31 51.5t-57 37.5t-88.5 15.5q-40 0 -71.5 -7.5t-54 -20t-36 -27.5t-19.5 -29q13 -12 23 -25t16.5 -29.5t9.5 -38t3 -51.5v-450h-287v162h80v290q0 14 -3.5 29t-11.5 29.5t-22 28.5t-35 26q9 36 25 71.5t40 67.5t56.5 60t75 49t95 33 t116.5 12q76 0 134.5 -14t102.5 -38t75 -58t50 -73t27 -83t8 -90v-502z" />
<glyph unicode="&#xe21;" horiz-adv-x="901" d="M78 0v840h208v-468q0 -56 14.5 -94t38 -62t51.5 -34t58 -10q44 0 76.5 12.5t53 35t29.5 54.5t9 70v496h208v-514q0 -70 -16.5 -133t-52 -110t-91.5 -74t-136 -27q-78 0 -140 31q-64 31 -110 95v-108h-200z" />
<glyph unicode="&#xe22;" horiz-adv-x="878" d="M64 620q0 44 11 77t30.5 57.5t45 41t53.5 26t58 14.5q30 4 56 4h145v-174h-119q-19 0 -33 -5t-23 -12.5t-14 -17.5q-4 -11 -4 -21q0 -16 5.5 -29t16 -23.5t25.5 -17t35 -8.5h111v-157h-103q-17 -1 -32.5 -5t-27.5 -14t-19 -29t-7 -51q0 -30 14 -52t37 -38t52 -24t59 -8 q34 0 63 10t50 31t33 54t12 79v512h207v-539q0 -79 -28.5 -139t-78.5 -101t-116 -61t-142 -20q-46 0 -92 7t-87 23t-77 40t-61.5 56t-40 73t-14.5 91q0 62 20 109t64 73q-21 17 -37 37.5t-26.5 42.5t-15.5 44t-5 44z" />
<glyph unicode="&#xe23;" horiz-adv-x="762" d="M244 312q5 -78 41.5 -115t103.5 -37q18 0 39 4t38.5 13t28.5 25q11 18 11 42q0 18 -9.5 31.5t-29 26t-48.5 24.5t-69 28q-60 23 -113 46.5t-92 52.5t-61 68t-22 93q0 44 12 80t34 62.5t51 45.5t62.5 31t70 17.5t72.5 5.5q70 0 130.5 -15t104.5 -50.5t70.5 -95 t28.5 -148.5h-202q-1 36 -11 62t-26.5 42.5t-37.5 23.5t-44 7q-17 0 -35 -4t-32.5 -11.5t-24 -20t-9.5 -30.5q0 -14 9 -25t27 -23t47 -24t71 -26q86 -31 142 -61.5t88 -63.5t44.5 -69t12.5 -78q0 -73 -26 -123.5t-71.5 -81.5t-106.5 -44t-132 -13q-70 0 -131 18t-107.5 57 t-74.5 101q-28 64 -33 152h209z" />
<glyph unicode="&#xe24;" horiz-adv-x="900" d="M383 162v-162h-293v452q0 14 -3 29t-11 29.5t-22 28.5t-36 26q8 36 24 71.5t40 67.5t57 60t75 49t95 33t117 12q76 0 135 -14t103 -38t74.5 -58t49 -73t27.5 -83t9 -90v-774h-212v788q0 29 -9 57.5t-31 51.5t-57.5 37.5t-88.5 15.5q-40 0 -71.5 -7.5t-54 -20t-36 -27.5 t-18.5 -29q26 -24 38 -60q13 -38 13 -84v-288h86z" />
<glyph unicode="&#xe25;" horiz-adv-x="880" d="M596 385q-34 -22 -69 -31.5t-64 -15.5l-72 -14t-64.5 -17.5t-46.5 -25.5t-18 -39q0 -26 11.5 -44t30 -29t40.5 -15t45 -4q22 0 51.5 4t65.5 14v-160q-42 -12 -78 -18t-72 -6q-62 0 -116.5 13t-96 42t-65.5 77q-25 48 -25 116q0 44 12.5 78t35.5 61t56 46t75.5 34t93 27 t108.5 22q30 6 59.5 13t52 18t36.5 25t14 34q0 30 -12.5 48t-33 27t-45.5 11t-51 2q-34 0 -62 -6t-49 -22t-33.5 -43t-14.5 -71h-213q2 62 17 110t41 84t61 60t76.5 39.5t89 22t98.5 6.5q40 0 80.5 -5t78 -16t70 -30.5t57 -48t38.5 -68.5t14 -92v-598h-207v385z" />
<glyph unicode="&#xe26;" horiz-adv-x="936" d="M858 -272h-211v788q0 29 -9.5 57.5t-31 51.5t-57 37.5t-88.5 15.5q-40 0 -71.5 -7.5t-54 -20t-36 -27.5t-19.5 -29q13 -12 23 -25t16.5 -29.5t9.5 -38t3 -51.5v-450h-287v162h80v290q0 14 -3.5 29t-11.5 29.5t-22 28.5t-35 26q9 36 25 71.5t40 67.5t56.5 60t75 49t95 33 t116.5 12q76 0 134.5 -14t102.5 -38t75 -58t50 -73t27 -83t8 -90v-774z" />
<glyph unicode="&#xe27;" horiz-adv-x="803" d="M536 420q0 66 -10 115t-29 81.5t-46 48t-62 15.5q-24 0 -45 -10t-37.5 -29t-28.5 -48t-16 -67h-215q6 73 33 134.5t71.5 105.5t104.5 69t133 25q94 0 162.5 -32t113.5 -89.5t67 -138.5t22 -180t-22 -180t-67 -138.5t-114 -88.5t-162 -31q-73 0 -133 24t-104.5 68.5 t-71.5 106t-33 135.5h215q4 -39 16 -68.5t28.5 -48.5t37.5 -28t45 -9q34 0 61.5 15t46.5 47t29 80.5t10 115.5z" />
<glyph unicode="&#xe28;" horiz-adv-x="930" d="M284 0h-206v496q0 46 8 90.5t26 85t47 74.5t72 59t101 39t133 14q50 0 92.5 -7t77.5 -19q12 6 21.5 16.5t15.5 23t9 26.5t3 26h211q0 -28 -7.5 -56.5t-22.5 -54t-36 -46.5t-47 -36q38 -49 54 -110t16 -125v-496h-209v512q0 29 -10 58.5t-31.5 53.5t-55.5 39t-81 15 q-48 0 -82 -15t-56 -39t-32.5 -53.5t-10.5 -58.5v-78q23 23 49 40.5t55.5 29.5t64.5 18t75 6v-180q-66 -2 -112 -19t-75 -48t-43 -73t-14 -96v-112z" />
<glyph unicode="&#xe29;" horiz-adv-x="934" d="M387 379v219h183v-64h73v306h211v-306h74v-155h-74v-35q0 -46 -7.5 -91t-25 -85t-46.5 -74t-72 -59t-101.5 -39t-134.5 -14q-78 0 -137 14t-102.5 39t-72 59t-46 74t-24.5 85t-7 91v496h208v-510q0 -30 9 -60t30 -54t56 -39t86 -15q52 0 85.5 15t53.5 39t28.5 54t8.5 60 v49h-256z" />
<glyph unicode="&#xe2a;" horiz-adv-x="880" d="M596 385q-34 -22 -69 -31.5t-64 -15.5q-36 -7 -72 -13.5t-64.5 -16.5t-46.5 -25t-18 -39q0 -26 11.5 -44t30 -29t40.5 -16t45 -5q22 0 51.5 4t65.5 14v-160q-42 -12 -78 -18t-72 -6q-62 0 -116.5 13t-96 43t-65.5 78q-25 48 -25 116q0 66 27 110t76.5 74t120.5 48t157 34 q30 6 59.5 13t52 18t36.5 25t14 34q0 30 -12.5 48t-33 27t-45.5 11t-51 2q-34 0 -62 -6t-49 -22t-33.5 -43t-14.5 -71h-213q2 62 17 110t41 84t61 60t76.5 39.5t89 22t98.5 6.5q40 0 80.5 -5t76.5 -15q11 7 19 17t13 21.5t8 23.5q2 14 2 24h210q0 -28 -7 -55.5t-20.5 -52 t-33 -45.5t-45.5 -36q17 -28 26 -61.5t9 -75.5v-598h-207v385z" />
<glyph unicode="&#xe2b;" horiz-adv-x="882" d="M286 840v-234l266 234h286l-176 -154q38 -15 65.5 -37.5t46 -52.5t27 -69t8.5 -89v-438h-209v428q0 56 -18.5 88t-56.5 50l-239 -209v-357h-208v840h208z" />
<glyph unicode="&#xe2c;" horiz-adv-x="1097" d="M864 0h-158l-155 424l-149 -424h-162l-220 840h230l92 -504l137 372h145l144 -384l51 229q7 34 9 59.5t-6 42.5t-29 26t-62 11v152q38 0 69.5 7t55 21.5t38 37t18.5 54.5h233q-6 -44 -23.5 -79t-40.5 -62t-48.5 -45t-49.5 -28q14 -20 26 -43.5t19 -48t8 -50t-6 -49.5z " />
<glyph unicode="&#xe2d;" horiz-adv-x="868" d="M434 676q-30 0 -57.5 -9t-49.5 -25.5t-37.5 -40t-23.5 -52.5h-221q17 69 49 126t81 98t113 64t146 23q108 0 182.5 -34t121 -93.5t67.5 -140t21 -174.5q0 -58 -9.5 -113t-29.5 -104t-51 -89t-74.5 -69t-99.5 -45t-126 -16q-71 0 -127.5 16t-99.5 44.5t-73 69t-49.5 88.5 t-28.5 103.5t-9 114.5v59h387v-170h-168q8 -32 24 -58.5t37.5 -46t48 -30t58.5 -10.5q42 0 74.5 17t55 50t34.5 80.5t12 108.5q0 126 -44 192t-134 66z" />
<glyph unicode="&#xe2e;" horiz-adv-x="864" d="M434 676q-30 0 -57.5 -9t-49.5 -25.5t-37.5 -40t-23.5 -52.5h-221q17 69 49 126t81 98t113 64t146 23q46 0 87 -7t75 -19q12 6 21 16.5t15 23t8.5 25.5t2.5 25h211q0 -28 -8 -57t-22.5 -54t-36 -46.5t-47.5 -35.5q44 -60 65 -140.5t21 -172.5q0 -58 -9.5 -113t-29.5 -104 t-51 -89t-74.5 -69t-99.5 -45t-126 -16q-71 0 -127.5 16t-99.5 44.5t-73 69t-49.5 88.5t-28.5 103.5t-9 114.5v59h387v-170h-168q8 -32 24 -58.5t37.5 -46t48 -30t58.5 -10.5q42 0 74.5 17t55 50t34.5 80.5t12 108.5q0 126 -44 192t-134 66z" />
<glyph unicode="&#xe2f;" horiz-adv-x="905" d="M620 0v346q-38 -20 -85 -31.5t-99 -11.5q-88 0 -155 20.5t-111.5 57.5t-67 90t-22.5 117q0 48 12.5 85t34 65t50.5 47t61.5 31t67.5 18t69 6h151v-172h-151q-42 0 -62 -22t-20 -60q0 -18 6.5 -37t22.5 -34t42 -24t66 -9q92 0 141 32q49 30 49 100v226h208v-840h-208z" />
<glyph unicode="&#xe30;" horiz-adv-x="522" d="M80 536v214h172v-62h204v-152h-376zM80 121v211h172v-62h204v-149h-376z" />
<glyph unicode="&#xe31;" d="M-551 958v232h185v-72h399v-160h-584z" />
<glyph unicode="&#xe32;" horiz-adv-x="735" d="M18 545q0 76 28 134.5t73 98t103 60t120 20.5q66 0 124 -17.5t100.5 -53t67 -90.5t24.5 -129v-568h-210v540q0 72 -27 105t-79 33q-46 0 -75 -33t-33 -100h-216z" />
<glyph unicode="&#xe33;" horiz-adv-x="735" d="M234 545q4 66 33 99.5t75 33.5q52 0 79 -32q27 -34 27 -106v-540h210v568q0 74 -24.5 129t-67 90.5t-100.5 53t-124 17.5q-62 0 -120 -20.5t-103 -60t-73 -98t-28 -134.5h216zM-252 1112q0 -12 5 -23.5t14 -20.5t21 -14.5t24 -5.5q13 0 24.5 5.5t20.5 14.5t14.5 20.5 t5.5 23.5q0 13 -5.5 25t-14.5 21t-21 14.5t-24 5.5t-24 -5.5t-21 -14.5t-14 -21t-5 -25zM-362 1112q0 37 13.5 69t37 55.5t55.5 37.5t68 14t67.5 -14t55.5 -37.5t38.5 -55.5t14.5 -69q0 -36 -14.5 -68t-38.5 -55t-56 -37q-31 -14 -67 -14t-68 14t-55.5 37t-37 55t-13.5 68z " />
<glyph unicode="&#xe34;" d="M-842 958l82 160h680v-160h-762z" />
<glyph unicode="&#xe35;" d="M-760 1118h482v129h198v-289h-762z" />
<glyph unicode="&#xe36;" d="M-370 1124q0 32 12 61t33 50t49 33t61 12q32 0 60.5 -12.5t49.5 -34t33 -50.5t12 -61q0 -36 -12 -65.5t-33 -51.5t-49.5 -34.5t-60.5 -12.5h-627l82 160h390v6zM-270 1124q0 -11 4 -20.5t11.5 -16.5t18 -11.5t21.5 -4.5q12 0 21.5 4.5t17.5 11.5t12 17t4 20q0 12 -4 22 t-12 17.5t-18 12t-21 4.5q-12 0 -22 -4.5t-17.5 -12t-11.5 -17.5t-4 -22z" />
<glyph unicode="&#xe37;" d="M-760 1118h287v129h164v-129h65v129h164v-289h-762z" />
<glyph unicode="&#xe38;" d="M-268 -461v211h-94v150h284v-361h-190z" />
<glyph unicode="&#xe39;" d="M-641 -100h266v-132q0 -32 12.5 -48.5t40.5 -16.5q54 -1 54 65v132h190v-132q0 -47 -13 -88.5t-41.5 -72.5t-75 -49.5t-114.5 -18.5q-61 0 -104.5 14.5t-73.5 41t-46 63t-19 80.5h-76v162z" />
<glyph unicode="&#xe3a;" d="M-312 -194q0 27 11 50.5t28.5 41.5t41.5 28t51 10q26 0 49.5 -10t41 -28t28 -42t10.5 -50t-10.5 -50t-28 -41t-41 -28t-49.5 -11q-27 0 -51 11t-41.5 28t-28.5 41t-11 50z" />
<glyph unicode="&#xe3e;" />
<glyph unicode="&#xe3f;" horiz-adv-x="973" d="M426 1000v116h127v-118q26 -1 52.5 -3.5t51.5 -7.5t47 -12t40 -17q27 -16 51.5 -38t43.5 -50t30 -61.5t11 -73.5q0 -34 -8 -63.5t-22 -55t-34 -46t-44 -36.5q34 -16 62 -39.5t48 -53t31 -64.5t11 -72q0 -38 -10 -75.5t-30 -71.5t-49 -63t-67.5 -50t-85.5 -33 q-46 -12 -102 -12h-27v-137h-127v137h-334v1000h334zM706 309q0 30 -13 52.5t-34 37.5t-49 23t-57 10v-258h8q36 0 63 10t45.5 28t27.5 43t9 54zM426 174v258h-117v-258h117zM426 592v234h-117v-234h117zM666 710q0 28 -9 48t-24 33t-35.5 20t-44.5 10v-225q60 10 86.5 40 t26.5 74z" />
<glyph unicode="&#xe40;" horiz-adv-x="383" d="M86 0v840h211v-840h-211z" />
<glyph unicode="&#xe41;" horiz-adv-x="692" d="M78 0v840h211v-840h-211zM404 0v840h210v-840h-210z" />
<glyph unicode="&#xe42;" horiz-adv-x="426" d="M100 985q0 23 -9 43.5t-25 36t-38 24.5t-50 9l40 149h438l72 -165h-268q11 -9 20 -23t15.5 -30t10 -33.5t3.5 -33.5v-800h84v-162h-293v985z" />
<glyph unicode="&#xe43;" horiz-adv-x="426" d="M309 164h87v-164h-294v836q0 27 8 50.5t20 45t26 40t28 36.5q20 24 34 44t14 38q0 4 -2 10.5t-6 12t-12 9.5t-22 4q-19 0 -35 -10t-27.5 -27t-18.5 -40t-7 -49h-172q0 72 23 125t60 88t84 52t97 17q44 0 86 -10t74.5 -32.5t51.5 -57.5q20 -34 20 -84q0 -17 -4 -32.5 t-11 -29.5t-16.5 -27t-19.5 -26q-12 -16 -23.5 -31.5t-20.5 -33t-15 -38t-7 -44.5v-672z" />
<glyph unicode="&#xe44;" horiz-adv-x="426" d="M-119 1082l72 165h438l41 -149q-28 0 -50.5 -9t-38.5 -24.5t-25 -36t-9 -43.5v-815h84v-170h-293v962q0 16 4 33.5t10.5 33.5t15.5 29q10 14 20 24h-269z" />
<glyph unicode="&#xe45;" horiz-adv-x="735" d="M18 545q0 76 28 134.5t73 98t103 60t120 20.5q66 0 124 -17.5t100.5 -53t67 -90.5t24.5 -129v-840h-210v812q0 72 -27 105t-79 33q-46 0 -75 -33t-33 -100h-216z" />
<glyph unicode="&#xe46;" horiz-adv-x="856" d="M278 530q0 -12 3 -26t10 -26.5t17.5 -21t27.5 -8.5h57v-168h-57q-27 0 -56.5 6t-57.5 18t-54 30.5t-47 44t-35 58.5q-12 33 -16 73q-6 62 5 117t43.5 100t89 76t142.5 43l78 -76l68 74q63 -5 108 -21t76.5 -40t50 -55.5t29 -67.5t13.5 -75.5t3 -80.5v-774h-211v790v37 t-1.5 41t-5.5 37t-13 25l-74 -70q-8 -8 -18.5 -14t-24.5 -6q-16 0 -27 6t-18 14l-74 70q-9 -8 -15 -23t-10 -33t-5.5 -37.5t-0.5 -36.5z" />
<glyph unicode="&#xe47;" d="M-542 1164q0 -6 1 -14.5t5.5 -16t12.5 -13.5t21 -6q24 0 34.5 15t8.5 49h131q-2 -34 9 -49t33 -15t27 16t1 48h146q8 -58 -2.5 -98t-33 -64t-54.5 -34q-30 -11 -66 -11q-20 0 -39 5.5t-34 14t-28 20t-22 23.5q-10 -13 -24.5 -24.5t-31.5 -20t-36 -13.5t-39 -5 q-36 0 -63 9t-48 24.5t-35 35.5t-23 41t-13 43t-4 40q0 53 19 91.5t51.5 63.5t74 37t86.5 12h417v-137h-403q-28 0 -43.5 -7.5t-23.5 -18t-10 -22t-2 -19.5z" />
<glyph unicode="&#xe48;" d="M-272 1608h194v-279h-194v279z" />
<glyph unicode="&#xe49;" d="M-422 1329v135h-72v136h232v-126q33 4 60.5 15t46.5 28t30 38t11 45h170q0 -52 -21.5 -101t-64.5 -87t-107.5 -60.5t-151.5 -22.5h-133z" />
<glyph unicode="&#xe4a;" d="M-160 1327v33.5t-3 36.5t-11 29t-22 12q-10 0 -17 -7t-10.5 -17t-5 -22.5t-1.5 -24.5h-84q0 10 -1.5 22.5t-5 23.5t-10.5 18t-19 7q-15 0 -22.5 -12t-10.5 -29t-3.5 -36t-0.5 -34h-127q-4 62 7 107.5t31.5 75.5t48 44.5t59.5 14.5q28 0 52 -13.5t42 -35.5 q18 22 42.5 35.5t55.5 13.5q18 0 36 -5.5t33.5 -16.5t27.5 -26.5t18 -35.5q7 9 13 22t11 27.5t8 31t3 32.5h147q0 -42 -14.5 -87t-38.5 -83.5t-56.5 -66t-68.5 -34.5h-103z" />
<glyph unicode="&#xe4b;" d="M-82 1436v-107h-188v107h-121v145h121v105h188v-105h121v-145h-121z" />
<glyph unicode="&#xe4c;" d="M-41 1386q-38 0 -66.5 -10t-48.5 -29t-30 -45t-10 -57h-200q0 68 27 121.5t74 90.5t112 56.5t142 20.5v-148z" />
<glyph unicode="&#xe4d;" d="M-252 1112q0 -12 5 -23.5t14 -20.5t21 -14.5t24 -5.5q13 0 24.5 5.5t20.5 14.5t14.5 20.5t5.5 23.5q0 13 -5.5 25t-14.5 21t-21 14.5t-24 5.5t-24 -5.5t-21 -14.5t-14 -21t-5 -25zM-362 1112q0 37 13.5 69t37 55.5t55.5 37.5t68 14t67.5 -14t55.5 -37.5t38.5 -55.5 t14.5 -69q0 -36 -14.5 -68t-38.5 -55t-56 -37q-31 -14 -67 -14t-68 14t-55.5 37t-37 55t-13.5 68z" />
<glyph unicode="&#xe4e;" d="M-20 1186q-34 0 -56.5 -4t-35 -12t-17 -21t-4.5 -33v-47h-53q-24 0 -39.5 -7.5t-24.5 -22.5t-12.5 -36t-3.5 -47h-176q0 46 8 87t27 73t49 55t74 33q8 30 28 54t52 42t78 28t106 12v-154z" />
<glyph unicode="&#xe4f;" horiz-adv-x="1014" d="M66 418q0 61 15.5 117.5t44.5 105t69.5 89t90 68.5t106 44t118.5 16q60 0 116 -16t105 -44t89 -68.5t68 -89t44 -105t16 -117.5t-16 -117.5t-44 -105.5t-68 -89t-89 -68.5t-105 -44t-116 -15.5q-62 0 -118.5 15.5t-106 44t-90 68.5t-69.5 89t-44.5 105.5t-15.5 117.5z M274 422q0 47 19 89t51 73.5t75 50.5t91 19q47 0 88.5 -19t73 -50.5t50 -73.5t18.5 -89q0 -48 -18.5 -91t-50 -74.5t-73 -50t-88.5 -18.5q-48 0 -91 18.5t-75 50t-51 74.5t-19 91zM205 422q0 -42 10.5 -80.5t30.5 -72.5t48 -62t62 -48.5t73 -31.5t81 -11q41 0 79.5 11 t71.5 31.5t61 48.5t47.5 62t30.5 72.5t11 80.5q0 62 -24 117t-65 96t-95.5 64.5t-116.5 23.5q-64 0 -119.5 -23.5t-97 -64.5t-65 -96t-23.5 -117zM400 422q0 -23 8 -43.5t23 -35.5t35 -23t44 -8q22 0 41 8t33 23t22 35.5t8 43.5q0 22 -8 41t-22 33.5t-33 23t-41 8.5 q-24 0 -44 -8.5t-35 -23t-23 -33.5t-8 -41z" />
<glyph unicode="&#xe50;" horiz-adv-x="964" d="M887 385q0 -76 -14.5 -135.5t-41 -104.5t-63.5 -76t-81.5 -50.5t-96.5 -28t-106 -8.5q-56 0 -108 8.5t-97 28t-82 51t-63.5 76t-41 104t-14.5 135.5q0 80 28 146.5t80 113.5t128 73t170 26t168 -26t126.5 -73t80.5 -113.5t28 -146.5zM686 358q0 57 -16.5 97.5t-44 65.5 t-64.5 37t-77 12t-78 -12t-66 -37t-45 -65t-17 -98q0 -44 15 -81t42 -64t65 -42t84 -15t83 15t63.5 42t41 64t14.5 81z" />
<glyph unicode="&#xe51;" horiz-adv-x="952" d="M428 -16q-46 0 -96 3.5t-103 18t-108.5 43t-112.5 78.5l136 111q28 -30 62 -48t71 -27t75 -11t72 -2q58 0 103 15.5t75.5 46t47 74t16.5 99.5q0 42 -12.5 77.5t-37 60.5t-62 39t-87.5 14q-39 0 -72 -7t-57 -20t-38 -33t-14 -47q0 -23 11 -41t36 -29.5t65 -14.5 q42 -2 100 5v-151q-18 -6 -36.5 -9.5t-35.5 -6t-31 -2.5q-15 -1 -23 -1q-60 0 -113 17t-93 48t-63 75q-23 43 -23 97q0 52 15 94t42 74t63.5 55t79 38t90 22t95.5 7q85 0 160 -20t130 -63.5t87 -111.5t32 -164q0 -90 -30 -164.5t-88 -127.5t-141 -82t-187 -29z" />
<glyph unicode="&#xe52;" horiz-adv-x="1104" d="M826 506q0 20 -8 35t-20 24l-122 -98l-113 96q-9 -8 -15 -21t-6 -30v-30q0 -16 0.5 -28.5t3 -21.5t8.5 -14q8 -4 20 -4h65v-164h-80q-52 0 -87.5 12.5t-59.5 33t-37 47.5t-19 55t-6.5 56t0.5 50q2 46 19 85.5t47 70t73 52.5t99 32l88 -76l94 74q56 -7 103 -27.5 t81.5 -51.5t54 -70t19.5 -83v-190q0 -58 -14 -105t-40 -84t-62 -64t-79 -44.5t-92.5 -26t-101.5 -8.5h-111q-104 0 -185 25t-137 70t-85 109t-29 142v254q0 42 -17 60t-57 18l33 176q54 0 99.5 -14t77.5 -42.5t50 -71.5q17 -44 17 -102v-292q0 -32 19.5 -60.5t56.5 -50 t90 -34.5t119 -13q62 0 107.5 11.5t76 30.5t46.5 43.5t16 49.5v209v0z" />
<glyph unicode="&#xe53;" horiz-adv-x="962" d="M358 561q-13 -4 -26.5 -14t-24.5 -29t-18 -48q-7 -28 -7 -70v-62q0 -34 1 -62t5 -48.5t14 -34.5t29 -20.5t49 -6.5q28 0 72 8v-164q-16 -4 -36 -8t-41.5 -6t-42.5 -3t-37 1q-54 7 -91.5 26.5t-61.5 47.5t-37 62t-19 69t-7 70.5t-1 66.5v51q0 87 22 150t63 106t100 67 q59 26 135 34l88 -76l92 74q80 -4 138 -29t96 -64t56.5 -89t18.5 -106v-454h-205v465q0 18 -5 35.5t-14 31t-21 22t-26 9.5l-134 -109z" />
<glyph unicode="&#xe54;" horiz-adv-x="962" d="M469 553q-42 0 -76.5 -8.5t-59 -25t-38 -41t-13.5 -56.5v-92q0 -32 9 -60t29 -49t50 -33t72 -12q-16 20 -25 43t-9 51q0 12 1 31t9 40t25 41t48 36t78 26t115 10v-165q-26 0 -41 -2.5t-24 -7.5t-12 -12.5t-3 -16.5q0 -16 5.5 -30t15.5 -23.5t24 -15t31 -5.5h215v-176 h-465q-70 0 -123 14t-92 39t-65 57t-42 68t-23 73t-7 73v78q0 84 28.5 146t81 103t127.5 60.5t169 19.5h176q21 0 33.5 8t20.5 22.5t10.5 34.5t2.5 44h209q0 -34 -4.5 -68t-16 -66t-30.5 -60t-49 -48.5t-72 -32.5t-98 -12h-197z" />
<glyph unicode="&#xe55;" horiz-adv-x="962" d="M469 553q-42 0 -76.5 -8.5t-59 -25t-38 -41t-13.5 -56.5v-92q0 -32 9 -60t29 -49t50 -33t72 -12q-16 20 -25 43t-9 51q0 12 1 31t9 40t25 41t48 36t78 26t115 10v-165q-26 0 -41 -2.5t-24 -7.5t-12 -12.5t-3 -16.5q0 -16 5.5 -30t15.5 -23.5t24 -15t31 -5.5h215v-176 h-465q-70 0 -123 14t-92 39t-65 57t-42 68t-23 73t-7 73v78q0 64 17 115t48.5 90t77 65t103.5 40v11q0 33 13 63t36.5 52t54.5 36q32 13 66 13q36 0 67 -12.5t53.5 -34t36 -50t15.5 -59.5q18 0 30 8.5t19 23.5t9.5 34t2.5 43h209q0 -34 -4.5 -68t-16 -66t-30.5 -60 t-49 -48.5t-72 -32.5t-98 -12h-197zM438 725q0 -10 4.5 -20t12 -17.5t17.5 -11.5t22 -4t22 4t17 11.5t11.5 17t4.5 20.5q0 12 -4.5 21.5t-11.5 17.5t-17 12t-22 4t-22 -4t-17.5 -12t-12 -17.5t-4.5 -21.5z" />
<glyph unicode="&#xe56;" horiz-adv-x="979" d="M268 688q50 25 111 37.5t131 16.5q75 2 133.5 -11t102 -36.5t73.5 -57t48.5 -73.5t26.5 -84.5t7 -90.5v-51q-4 -47 -16.5 -91.5t-35.5 -84.5t-57 -72t-78.5 -55t-101 -35t-124.5 -10q-77 2 -140.5 22t-108.5 54t-70 80t-25 100q0 55 18.5 95.5t53 66.5t83.5 38.5 t109 12.5h67v-164h-61q-20 0 -34 -4t-21 -11.5t-10 -17.5q-3 -8 -3 -20q0 -16 11 -30t30 -24.5t47 -17t62 -6.5q38 -1 74 10t63.5 33t44 55t16.5 76v47q0 94 -43.5 137t-132.5 43q-39 0 -78.5 -4.5t-80.5 -15.5t-84 -30.5t-89 -49.5l-164 256l164 92z" />
<glyph unicode="&#xe57;" horiz-adv-x="1161" d="M821 396v-60q-2 -32 -5.5 -71t-17.5 -79q20 8 36 26t27 42t16 52t5 56v250q0 58 17 101.5t47 72t74 42.5t98 14l33 -158q-20 0 -34 -7t-23 -20t-13 -31t-4 -38v-213q0 -77 -27.5 -142.5t-79.5 -115t-125 -82.5t-165 -43l-131 94q32 28 48 59.5t23.5 64t7.5 64.5v60v74 q0 32 -3 56t-9.5 42t-15 31t-18.5 20l-123 -98l-119 102q-10 -8 -21 -21t-19 -32.5t-13 -45.5t-5 -58v-66q0 -14 1 -32t3 -37t6 -37t11 -32t18 -23t27 -9q10 0 35 1t61 9l2 -164q-14 -3 -32 -6.5t-38.5 -6.5t-41 -3.5t-39.5 2.5q-52 10 -87.5 31t-59.5 48t-38 59t-21 66 t-9 67t-2 63v55q0 80 20 141.5t58 105.5t94 72q55 28 127 38l86 -74l90 70q82 -11 133.5 -40t81.5 -73.5t41.5 -103t11.5 -129.5z" />
<glyph unicode="&#xe58;" horiz-adv-x="942" d="M438 549q-42 0 -71 -11t-48 -28.5t-28 -40.5t-9 -47v-146q0 -18 6 -34t16 -29.5t23 -23t25 -13.5l125 104l131 -106q13 2 24.5 7t19.5 15.5t13 27t5 40.5q0 10 -1 20t-4 18t-8 14t-14 8q-12 3 -29.5 3.5t-41.5 0.5v162h69q52 -3 89.5 -14t62.5 -27.5t41 -37.5t24.5 -45 t11 -50t2.5 -52q0 -63 -18.5 -113.5t-56.5 -86.5t-94.5 -55t-132.5 -19l-91 74l-86 -76q-78 6 -136.5 30.5t-98.5 63.5t-60 89q-20 49 -20 105v124q0 78 24 139t71 104t117 65.5t162 22.5h179q20 0 33 8t20.5 22.5t10.5 34.5t3 44h207q0 -34 -4.5 -68t-15.5 -66.5t-30 -61 t-49 -49.5t-72 -33.5t-97 -12.5h-199z" />
<glyph unicode="&#xe59;" horiz-adv-x="973" d="M702 742q18 0 30 6t18.5 18.5t9 31t2.5 42.5h186q0 -34 -3 -66t-12 -60.5t-26 -53t-45.5 -42t-69.5 -26.5q-42 -10 -98 -10q-10 0 -14 -4l-31 -31l269 -547h-216l-235 479q-22 40 -46 63q-25 23 -57 23q-18 0 -32.5 -8.5t-25.5 -28t-17.5 -53t-6.5 -84.5v-75q0 -22 4 -48 t12 -48t22 -36t38 -14q9 0 32.5 2t53.5 8l31 -170q-14 -3 -35.5 -6.5t-44.5 -6.5t-45.5 -5t-40.5 0q-53 6 -91 24t-63.5 44t-41 58t-23.5 67t-10 71t-2 70v59q0 88 14.5 154.5t48 111.5t89.5 68q54 23 136 23q14 0 32 -0.5t35 -2t34 -5t31 -9.5q18 -8 33 -19.5t28 -25.5 l37 41q6 6 17 13.5t28 7.5h61z" />
<glyph unicode="&#xe5a;" horiz-adv-x="1218" d="M932 0v840h206v-840h-206zM828 0v840h-208v-226q0 -70 -49 -101t-141 -31q-40 0 -66 9t-42 24t-22 33q-7 20 -7 38q0 38 20 60t62 22h151v172h-151q-34 0 -69 -6t-67.5 -18t-61.5 -31t-50.5 -47t-34 -65t-12.5 -85q0 -64 22.5 -117t67 -90t111.5 -57.5t155 -20.5 q52 0 99 11.5t85 31.5v-346h208z" />
<glyph unicode="&#xe5b;" horiz-adv-x="1949" d="M1518 410q-12 -16 -26 -37t-30.5 -48t-36 -63t-43.5 -82q-34 68 -64 122q-30 56 -54 96q-26 -45 -60 -117q-34 -73 -68 -173q-34 96 -64.5 162t-53.5 107q-12 -60 -37 -112.5t-60 -97.5t-79 -81t-94 -61t-106 -38t-114 -13q-72 0 -132.5 18t-110 51t-87.5 77t-64 95 t-39 107t-13 112q0 50 11 101t32 99t53 90.5t74 74t94 49.5t115 18q60 0 107 -15t83.5 -41t62.5 -62t42.5 -79t23.5 -89q8 -46 8 -94l-192 -2q0 91 -30 136q-29 46 -91 50q-48 -1 -83.5 -21t-59 -53.5t-35 -77.5t-11.5 -94q0 -49 18 -94.5t51 -79.5t79 -55q44 -21 100 -21 q55 0 100.5 18t81 50.5t62 77t44 97.5t26 112t8.5 120l133 72q45 -50 84 -98q39 -49 65 -89q14 21 30.5 46t33 49.5t32.5 48t30 41.5q17 -24 34.5 -49.5t34.5 -50t31 -46t24 -39.5l28 40q14 18 26 34h313l131 -198h-368z" />
<glyph unicode="&#x2000;" horiz-adv-x="843" />
<glyph unicode="&#x2001;" horiz-adv-x="1686" />
<glyph unicode="&#x2002;" horiz-adv-x="843" />
<glyph unicode="&#x2003;" horiz-adv-x="1686" />
<glyph unicode="&#x2004;" horiz-adv-x="562" />
<glyph unicode="&#x2005;" horiz-adv-x="421" />
<glyph unicode="&#x2006;" horiz-adv-x="281" />
<glyph unicode="&#x2007;" horiz-adv-x="281" />
<glyph unicode="&#x2008;" horiz-adv-x="210" />
<glyph unicode="&#x2009;" horiz-adv-x="337" />
<glyph unicode="&#x200a;" horiz-adv-x="93" />
<glyph unicode="&#x200b;" />
<glyph unicode="&#x2010;" horiz-adv-x="696" d="M643 473v-153h-590v153h590z" />
<glyph unicode="&#x2011;" horiz-adv-x="696" d="M643 473v-153h-590v153h590z" />
<glyph unicode="&#x2012;" horiz-adv-x="696" d="M643 473v-153h-590v153h590z" />
<glyph unicode="&#x2013;" horiz-adv-x="866" d="M866 477v-161h-866v161h866z" />
<glyph unicode="&#x2014;" horiz-adv-x="1597" d="M1598 477v-161h-1598v161h1598z" />
<glyph unicode="&#x2018;" horiz-adv-x="426" d="M106 618v172q0 47 13 92.5t39 81.5t66 58t94 22v-106q-24 0 -40 -12t-25 -30t-13 -38.5t-4 -38.5h73v-201h-203z" />
<glyph unicode="&#x2019;" horiz-adv-x="426" d="M320 1016v-172q0 -47 -13 -92.5t-39 -81.5t-66 -58t-94 -22v106q24 0 40 12t25 30t13 39t4 38h-74v201h204z" />
<glyph unicode="&#x201c;" horiz-adv-x="719" d="M100 618v172q0 47 13 92.5t39 81.5t66 58t94 22v-106q-24 0 -40 -12t-25 -30t-13 -38.5t-4 -38.5h73v-201h-203zM398 618v172q0 47 12.5 92.5t39 81.5t65.5 58t93 22v-106q-25 0 -40.5 -12t-24.5 -30t-13 -38q-4 -21 -4 -39h74v-201h-202z" />
<glyph unicode="&#x201d;" horiz-adv-x="719" d="M614 1016v-172q0 -47 -12.5 -92.5t-39 -81.5t-65.5 -58t-93 -22v106q24 0 40 11t25 28t12 38t5 42h-74v201h202zM318 1016v-172q0 -47 -13 -92.5t-39 -81.5t-66 -58t-94 -22v106q24 0 40.5 11.5t26 29t12.5 38.5t3 40h-74v201h204z" />
<glyph unicode="&#x2022;" horiz-adv-x="585" d="M37 430q0 32 9.5 63t25.5 58t39.5 49.5t52 39t60.5 25.5t67 9q53 0 100 -20t82 -54t55.5 -78t20.5 -92q0 -52 -20.5 -97t-55.5 -78t-82 -53t-100 -20q-35 0 -67 9t-60.5 25t-52 39t-39.5 50t-25.5 59t-9.5 66z" />
<glyph unicode="&#x202f;" horiz-adv-x="337" />
<glyph unicode="&#x205f;" horiz-adv-x="421" />
<glyph unicode="&#x20ac;" horiz-adv-x="1116" d="M852 660q-13 53 -33.5 86.5t-48.5 53t-64 26.5q-36 8 -78 8q-48 0 -87 -13t-69 -35.5t-52 -54t-37 -67.5h252v-134h-281v-24v-41h281v-133h-250q14 -37 36.5 -67.5t53.5 -51.5t70 -33t86 -12q52 0 92.5 17t69 48t45 76t20.5 101h217q-22 -214 -137.5 -321t-317.5 -107 q-98 0 -175 25.5t-135 72t-96 110.5t-56 142h-142v133h124v31v34h-124v134h144q20 78 59.5 144t99 113t137.5 74t175 27q84 0 157.5 -22t131.5 -66.5t97.5 -113t55.5 -160.5h-221v0z" />
<glyph unicode="&#x2122;" horiz-adv-x="1376" d="M1149 396v354l-139 -354h-92l-142 352v-352h-141v604h182l147 -372l144 372h184v-604h-143zM400 872v-476h-142v476h-174v128h490v-128h-174z" />
<glyph unicode="&#x25cc;" horiz-adv-x="934" d="M284 228l34 79q11 -17 23.5 -31t28.5 -24zM467 652l37 -78q-20 4 -41 3t-37 -5zM467 152l-37 76q18 -5 34 -5q16 1 38 7zM717 402l-78 -36q6 17 6.5 35.5t-4.5 38.5zM217 404l80 38q-3 -18 -4 -38t4 -40zM299 580l82 -29q-22 -11 -37 -23q-14 -12 -24 -28zM637 226 l-76 24q17 10 30 23t23 28zM649 580l-35 -82q-11 17 -25.5 30.5t-29.5 24.5z" />
<glyph unicode="&#x25fc;" horiz-adv-x="727" d="M0 728h728v-728h-728v728z" />
<glyph unicode="&#xf700;" horiz-adv-x="823" d="M217 309h-103v173h258l80 -242q8 23 19 50.5t21 56t19 57t16 53.5t11 46t4 33q0 66 -34 104t-104 38q-58 0 -93 -34t-49 -99h-227q12 69 43.5 126.5t80.5 99t115 64.5t146 23q32 0 65 -4t66 -14q10 4 19 12t15.5 19t10 24t4.5 25h219q-1 -27 -7 -56.5t-19 -56.5 t-32 -49.5t-46 -36.5q20 -32 31.5 -73.5t11.5 -94.5q0 -28 -8 -66t-22.5 -83.5t-33.5 -95.5t-40.5 -102.5t-44.5 -105t-44 -100.5h-237z" />
<glyph unicode="&#xf701;" d="M-966 958l82 160h532v-160h-614z" />
<glyph unicode="&#xf702;" d="M-884 1118h333v129h199v-289h-614z" />
<glyph unicode="&#xf703;" d="M-647 1124q0 32 12.5 61t33.5 50t49 33t60 12t61 -12.5t50 -34t33 -50.5t12 -61q0 -36 -12 -65.5t-33 -51.5t-50 -34.5t-61 -12.5h-474l82 160h237v6zM-547 1124q0 -11 4.5 -20.5t12 -16.5t17.5 -11q9 -5 21 -5t22 4.5t17.5 11.5t12 17t4.5 20q0 12 -4.5 22t-12 17.5 t-17.5 12t-22 4.5t-21.5 -4.5t-17 -12t-12 -17.5t-4.5 -22z" />
<glyph unicode="&#xf704;" d="M-884 1118h146v129h160v-129h66v129h160v-289h-614z" />
<glyph unicode="&#xf705;" d="M-590 1239h201v-279h-201v279z" />
<glyph unicode="&#xf706;" d="M-746 960v136h-65v135h215v-125q32 0 58 10.5t44.5 28t29 40t10.5 46.5h153q0 -52 -19.5 -101t-59.5 -86.5t-100 -60.5t-140 -23h-126z" />
<glyph unicode="&#xf707;" d="M-551 960v31.5t-3 34.5t-10.5 27.5t-21.5 11.5q-10 0 -16.5 -4.5t-10 -13.5t-4.5 -21t-1 -26h-74q0 14 -1 26t-5 20.5t-10 13.5t-14 5q-14 0 -22 -10.5t-11.5 -26.5t-4 -34t-0.5 -34h-116q-4 62 5 108t28 76t45 45t54 15q26 0 48 -14q20 -14 36 -35q20 22 43 35.5 t49 13.5q18 0 35 -5.5t31 -16t25 -26.5t16 -36q6 9 11.5 22t10 27.5t7 31t2.5 32.5h137q0 -28 -5.5 -57.5t-16.5 -58.5t-26 -55t-33 -47t-39 -35q-21 -16 -43 -20h-95z" />
<glyph unicode="&#xf708;" d="M-459 1063v-103h-180v103h-117v139h117v100h180v-100h117v-139h-117z" />
<glyph unicode="&#xf709;" d="M-340 1102q-38 0 -67 -10t-48.5 -29t-30 -45t-10.5 -58h-198q0 68 26 122t73.5 91t112.5 56t142 21v-148z" />
<glyph unicode="&#xf70a;" d="M-278 1239h200v-279h-200v279z" />
<glyph unicode="&#xf70b;" d="M-512 960v136h-72v135h232v-125q32 0 60 10.5t49 28t33 40t12 46.5h163q0 -52 -21.5 -101t-64 -86.5t-107 -60.5t-151.5 -23h-133z" />
<glyph unicode="&#xf70c;" d="M-332 960q0 16 -0.5 34.5t-4 34.5t-11.5 27t-24 11q-13 0 -20.5 -6t-12.5 -15.5t-6 -21.5t-1 -24h-89q0 12 -2 24t-6.5 21.5t-12.5 15.5t-20 6q-14 0 -23 -10t-13 -25.5t-6 -34.5t-2 -37h-143q-4 62 8.5 107.5t36 75t54 44.5t62.5 15t60 -16t47 -37q20 22 48.5 37.5 t64.5 15.5q22 0 43 -5.5t38 -16t30 -26.5t20 -36q7 10 13 22.5t11 27t8 31t3 32.5h154q0 -42 -15 -86.5t-40 -83.5t-59 -66t-71 -35h-119z" />
<glyph unicode="&#xf70d;" d="M-86 1067v-107h-188v107h-122v145h122v105h188v-105h121v-145h-121z" />
<glyph unicode="&#xf70e;" d="M-41 1102q-38 0 -66.5 -10t-48.5 -29t-30 -45t-10 -58h-200q0 68 27 122t74 91t112 56t142 21v-148z" />
<glyph unicode="&#xf70f;" horiz-adv-x="1333" d="M588 516q0 28 -8.5 56.5t-28 51t-51.5 37t-80 15.5q-34 0 -61.5 -7t-49 -18.5t-35.5 -26t-22 -28.5q26 -25 40 -62q15 -38 15 -84v-288h86v-162h-295v452q0 14 -3 29t-11 29t-22 28t-36 25q8 36 24 71.5t40 68.5t56 61t72.5 49t91 33t110.5 12q72 0 128 -14t98 -38 t71 -58t47 -74t26 -84t8 -90v-214q0 -32 10.5 -55.5t28 -40t39.5 -24.5q24 -8 48 -8t45.5 7t38 23t26.5 40t10 58v554h212v-566q0 -50 -13 -92t-36 -74.5t-54 -57t-68 -40t-78 -23t-83 -7.5q-44 0 -86 8t-79 25t-68.5 41.5t-54 57t-35.5 73.5t-13 89v242z" />
<glyph unicode="&#xf710;" d="M-641 958v232h185v-72h540v-160h-725z" />
<glyph unicode="&#xf711;" d="M-598 1112q0 -12 5 -23.5t14 -20.5t21 -14q12 -6 24 -6q13 0 24.5 5.5t20.5 14.5t14.5 20.5t5.5 23.5q0 13 -5.5 25t-14.5 21t-21 14.5t-24 5.5t-24 -5.5t-21 -14.5t-14 -21t-5 -25zM-708 1112q0 37 13 69t37 55.5t56 37.5t68 14q35 0 66.5 -14t56 -37.5t39 -55.5 t14.5 -69q0 -36 -14.5 -68t-39 -55t-56.5 -37t-66 -14q-36 0 -68 14t-56 37t-37 55t-13 68z" />
<glyph unicode="&#xf712;" d="M-756 1172q0 -6 2 -14t6 -16t11.5 -14t19.5 -6q22 0 33 14q10 16 8 48h125q-2 -32 8.5 -47t30.5 -15t26 16t0 46h140q7 -57 -2.5 -95.5t-31.5 -62t-52 -33.5t-64 -10q-20 0 -37 5.5t-31 14t-26 19.5q-12 10 -20 22q-10 -12 -24 -23t-30 -19.5t-34 -13.5t-37 -5 q-34 0 -60.5 9t-46.5 24t-33.5 34.5t-22 40.5t-12.5 42t-4 39q0 52 19 89t50 61t71 36t82 12h397v-133h-385q-26 0 -41 -7.5t-23 -17.5t-10 -21t-2 -19z" />
<glyph unicode="&#xf713;" d="M-547 1608h195v-279h-195v279z" />
<glyph unicode="&#xf714;" d="M-635 1329v135h-71v136h231v-126q32 0 60.5 10t49.5 27t33 40t12 49h162q0 -52 -21 -101t-64 -87t-107.5 -60.5t-151.5 -22.5h-133z" />
<glyph unicode="&#xf715;" d="M-424 1327v33.5t-3.5 36.5t-11 29t-21.5 12q-10 0 -17 -7t-11 -17t-5 -22.5t-1 -24.5h-85q0 10 -1.5 22.5t-5 23.5t-10.5 18q-6 7 -18 7q-15 0 -23 -12t-11 -29t-3.5 -36t-0.5 -34h-126q-4 62 7 107.5t31 75.5t48 44.5t59 14.5q28 0 52 -13q25 -14 43 -36q18 22 42 35.5 t56 13.5q18 0 36 -5.5t33 -16.5t27 -26.5t18 -35.5q7 9 13.5 22t11.5 27.5t7.5 31t2.5 32.5h147q0 -42 -14 -87t-38.5 -83.5t-57 -66t-68.5 -34.5h-102z" />
<glyph unicode="&#xf716;" d="M-354 1436v-107h-188v107h-122v145h122v105h188v-105h120v-145h-120z" />
<glyph unicode="&#xf717;" d="M-203 1376q-38 0 -66.5 -10t-48.5 -29t-30 -45t-10 -57h-199q0 68 26.5 121.5t73.5 90.5t112 56t142 21v-148z" />
<glyph unicode="&#xf718;" d="M-268 -723v211h-94v150h284v-361h-190z" />
<glyph unicode="&#xf719;" d="M-641 -362h266v-132q0 -32 12.5 -48.5t40.5 -16.5q54 -1 54 65v132h190v-132q0 -47 -13 -88.5t-41.5 -72.5t-75 -49.5t-114.5 -18.5q-61 0 -104.5 14.5t-73.5 41t-46 63t-19 80.5h-76v162z" />
<glyph unicode="&#xf71a;" d="M-316 -482q0 27 11 51.5t28.5 42t41 28t51.5 10.5q26 0 49 -10.5t41 -28t28 -41.5t10 -52q0 -26 -10 -49t-28 -41t-41 -28t-49 -10q-27 0 -51 10t-41.5 28t-28.5 41t-11 49z" />
<glyph unicode="&#xf71d;" horiz-adv-x="1097" d="M864 0h-158l-155 424l-149 -424h-162l-220 840h230l92 -504l137 372h145l144 -384l51 229q7 34 9 59.5t-6 42.5t-29 26t-62 11v152q38 0 69.5 7t55 21.5t38 37t18.5 54.5h233q-6 -44 -23.5 -79t-40.5 -62t-48.5 -45t-49.5 -28q14 -20 26 -43.5t19 -48t8 -50t-6 -49.5z " />
<glyph unicode="&#xf881;" horiz-adv-x="1364" d="M824 502v-774h-212v788q0 29 -9 57.5t-31 51.5t-57.5 37.5t-88.5 15.5q-40 0 -71.5 -7.5t-54 -20t-36 -27.5t-18.5 -29q26 -24 38 -60q13 -38 13 -84v-288h86v-162h-293v452q0 14 -3 29t-11 29.5t-22 28.5t-36 26q8 36 24 71.5t40 67.5t57 60t75 49t95 33t117 12 q50 0 92 -7t78 -20t65 -30t51 -37q24 22 53 39t59 29t62 19t64 7q66 0 127.5 -17.5t107.5 -53t73.5 -90.5t27.5 -129v-840h-209v812q0 36 -10 62t-27.5 43t-40.5 25t-49 8q-23 0 -44.5 -8t-39.5 -24.5t-29 -41t-13 -57.5v-45z" />
<glyph unicode="&#xf882;" horiz-adv-x="1356" d="M858 -272h-211v788q0 38 -14.5 67.5t-39.5 50t-59 32t-73 12.5q-40 0 -71.5 -7.5t-54 -20t-36 -27.5t-19.5 -29q13 -12 23 -25t16.5 -29.5t9.5 -38t3 -51.5v-450h-287v162h80v290q0 14 -3.5 29t-11.5 29.5t-22 28.5t-35 26q9 36 25 71.5t40 67.5t56.5 60t75 49t95 33 t116.5 12q95 0 164 -22.5t117 -59.5q45 40 101.5 61t118.5 21q66 0 124 -17.5t101 -53t67 -90.5t24 -129v-840h-209v812q0 72 -27.5 105t-79.5 33q-45 0 -72.5 -30t-35.5 -91q2 -14 3 -27.5t1 -27.5v-774z" />
<glyph d="M-340 1186q-34 0 -56 -4t-34.5 -12t-17 -21t-4.5 -33v-47h-54q-24 0 -39 -7.5t-24 -22.5t-13 -36t-4 -47h-176q0 46 8 87t27 73t49 55t74 33q8 30 28 54t52.5 42t78 28t105.5 12v-154z" />
<glyph horiz-adv-x="735" d="M234 545q4 66 33 99.5t75 33.5q52 0 79 -32q27 -34 27 -106v-540h210v568q0 74 -24.5 129t-67 90.5t-100.5 53t-124 17.5q-62 0 -120 -20.5t-103 -60t-73 -98t-28 -134.5h216zM-598 1112q0 -12 5 -23.5t14 -20.5t21 -14q12 -6 24 -6q13 0 24.5 5.5t20.5 14.5t14.5 20.5 t5.5 23.5q0 13 -5.5 25t-14.5 21t-21 14.5t-24 5.5t-24 -5.5t-21 -14.5t-14 -21t-5 -25zM-708 1112q0 37 13 69t37 55.5t56 37.5t68 14q35 0 66.5 -14t56 -37.5t39 -55.5t14.5 -69q0 -36 -14.5 -68t-39 -55t-56.5 -37t-66 -14q-36 0 -68 14t-56 37t-37 55t-13 68z" />
<glyph horiz-adv-x="735" d="M234 545q4 66 33 99.5t75 33.5q52 0 79 -32q27 -34 27 -106v-540h210v568q0 74 -24.5 129t-67 90.5t-100.5 53t-124 17.5q-62 0 -120 -20.5t-103 -60t-73 -98t-28 -134.5h216zM-598 1112q0 -12 5 -23.5t14 -20.5t21 -14q12 -6 24 -6q13 0 24.5 5.5t20.5 14.5t14.5 20.5 t5.5 23.5q0 13 -5.5 25t-14.5 21t-21 14.5t-24 5.5t-24 -5.5t-21 -14.5t-14 -21t-5 -25zM-708 1112q0 37 13 69t37 55.5t56 37.5t68 14q35 0 66.5 -14t56 -37.5t39 -55.5t14.5 -69q0 -36 -14.5 -68t-39 -55t-56.5 -37t-66 -14q-36 0 -68 14t-56 37t-37 55t-13 68z" />
<glyph d="M-719 958l82 160h557v-160h-639z" />
<glyph d="M-637 1118h359v129h198v-289h-639z" />
<glyph d="M-370 1124q0 32 12 61t33 50t49 33t61 12q32 0 60.5 -12.5t49.5 -34t33 -50.5t12 -61q0 -36 -12 -65.5t-33 -51.5t-49.5 -34.5t-60.5 -12.5h-504l82 160h267v6zM-270 1124q0 -11 4 -20.5t11.5 -16.5t18 -11.5t21.5 -4.5q12 0 21.5 4.5t17.5 11.5t12 17t4 20q0 12 -4 22 t-12 17.5t-18 12t-21 4.5q-12 0 -22 -4.5t-17.5 -12t-11.5 -17.5t-4 -22z" />
<glyph d="M-637 1118h164v129h164v-129h65v129h164v-289h-639z" />
<glyph d="M-1110 958l82 160h700v-160h-782z" />
<glyph d="M-1028 1118h502v129h198v-289h-782z" />
<glyph d="M-600 1124q0 32 12 61t33 50t49 33q30 12 62 12t60 -12.5t49 -34t33.5 -50.5t12.5 -61q0 -36 -12.5 -65.5t-33.5 -51.5t-49 -34.5t-60 -12.5h-666l82 160h428v6zM-500 1124q0 -11 4.5 -20.5t12 -16.5t17.5 -11.5t22 -4.5t22 4.5t17 11.5t11.5 17t4.5 20q0 12 -4.5 22 t-11.5 17.5t-17 12.5q-10 4 -22 4t-22 -4.5t-17.5 -12t-12 -17.5t-4.5 -22z" />
<glyph d="M-1028 1118h307v129h164v-129h65v129h164v-289h-782z" />
<glyph d="M-522 1620h194v-291h-194v291z" />
<glyph d="M-614 1329v135h-72v136h232v-126q34 0 62 11t49 28t32.5 40t11.5 47h162q0 -52 -21.5 -101t-64.5 -87t-107 -60.5t-152 -22.5h-132z" />
<glyph d="M-404 1327v33.5t-3.5 36.5t-11 29t-21.5 12q-10 0 -17 -7t-11 -17t-5 -22.5t-1 -24.5h-85q0 10 -1.5 22.5t-5 23.5t-10.5 18q-6 7 -18 7q-15 0 -23 -12t-11 -29t-3.5 -36t-0.5 -34h-126q-4 62 7 107.5t31 75.5t48 44.5t59 14.5q28 0 52 -13q25 -14 43 -36q18 22 42 35.5 t56 13.5q18 0 36 -5.5t33 -16.5t27 -26.5t18 -35.5q7 9 13.5 22t11.5 27.5t7.5 31t2.5 32.5h147q0 -42 -14 -87t-38.5 -83.5t-57 -66t-68.5 -34.5h-102z" />
<glyph d="M-330 1436v-107h-188v107h-121v145h121v105h188v-105h121v-145h-121z" />
<glyph d="M-1058 958l82 160h896v-160h-978z" />
<glyph d="M-976 1118h698v129h198v-289h-978z" />
<glyph d="M-368 1124q0 32 12 61t33 50t49 33t61 12q32 0 60.5 -12.5t49.5 -34t33 -50.5t12 -61q0 -36 -12 -65.5t-33 -51.5t-49.5 -34.5t-60.5 -12.5h-845l82 160h608v6zM-268 1124q0 -11 4 -20.5t12 -16.5t18 -11.5t21 -4.5q12 0 21.5 4.5t17.5 11.5t12 17t4 20q0 12 -4 22 t-12 17.5t-18 12t-21 4.5q-12 0 -21.5 -4.5t-17.5 -12t-12 -17.5t-4 -22z" />
<glyph d="M-976 1118h505v129h164v-129h65v129h164v-289h-980z" />
<glyph d="M-272 1538h194v-291h-194v291z" />
<glyph d="M-422 1247v135h-72v136h232v-126q34 0 63 11t51 28t35 40t13 47h156q0 -52 -21.5 -101t-64.5 -87t-107.5 -60.5t-151.5 -22.5h-133z" />
<glyph d="M-221 1245q0 14 -0.5 33.5t-3.5 36.5t-11 29t-22 12q-10 0 -16.5 -7t-10 -17t-5 -22.5t-1.5 -24.5h-85q0 10 -1 22.5t-5 23.5t-11 18t-19 7q-15 0 -22.5 -12t-10.5 -29t-3 -36v-34h-127q-4 62 6.5 107.5t31.5 75.5t48.5 44.5t58.5 14.5q28 0 52 -13.5t42 -35.5 q18 22 43 35.5t55 13.5q18 0 36.5 -5.5t34 -16.5t27.5 -26.5t18 -35.5q7 9 13 22t10.5 27.5t7.5 31t3 32.5h148q0 -42 -14.5 -87t-39 -83.5t-56.5 -66t-68 -34.5h-103z" />
<glyph d="M-82 1354v-107h-188v107h-121v145h121v105h188v-105h121v-145h-121z" />
<glyph d="M-542 1538h194v-291h-194v291z" />
<glyph d="M-635 1247v135h-71v136h231v-126q34 0 62.5 11t49 28t32 40t11.5 47h162q0 -52 -21 -101t-64 -87t-107.5 -60.5t-151.5 -22.5h-133z" />
<glyph d="M-424 1247v33.5t-3.5 36.5t-11 29t-21.5 12q-10 0 -17 -7t-11 -17t-5 -22.5t-1 -24.5h-85q0 10 -1.5 22.5t-5 23.5t-10.5 18q-6 7 -18 7q-15 0 -23 -12t-11 -29t-3.5 -36t-0.5 -34h-126q-4 62 7 107.5t31 75.5t48 44.5t59 14.5q28 0 52 -13q25 -14 43 -36q18 22 42 35.5 t56 13.5q18 0 36 -5.5t33 -16.5t27 -26.5t18 -35.5q7 9 13.5 22t11.5 27.5t7.5 31t2.5 32.5h147q0 -42 -14 -87t-38.5 -83.5t-57 -66t-68.5 -34.5h-102z" />
<glyph d="M-350 1354v-107h-188v107h-122v145h122v105h188v-105h120v-145h-120z" />
<glyph d="M-416 -461v211h-94v150h284v-361h-190z" />
<glyph d="M-674 -100h266v-132q0 -32 13 -48.5t41 -16.5q54 -1 53 65v132h191v-132q0 -47 -13 -88.5t-42 -72.5t-75 -49q-46 -19 -114 -19q-60 0 -105 14.5t-74 41t-45 63t-20 80.5h-76v162z" />
<glyph d="M-467 -194q0 27 10.5 50.5t28.5 41.5t41.5 28t50.5 10q26 0 49.5 -10t41 -28t28 -42t10.5 -50t-10.5 -50t-28 -41t-41 -28t-49.5 -11q-27 0 -50.5 11t-41.5 28t-28.5 41t-10.5 50z" />
<glyph d="M-391 -461v211h-95v150h286v-361h-191z" />
<glyph d="M-801 -100h267v-132q0 -32 12 -48q12 -17 40 -17q54 -1 54 65v132h190v-132q0 -47 -12.5 -88.5t-41 -72.5t-75.5 -49.5t-115 -18.5q-60 0 -104 14.5t-74 41t-46 63t-19 80.5h-76v162z" />
<glyph d="M-467 -194q0 27 10.5 50.5t28.5 41.5t41.5 28t50.5 10q26 0 49.5 -10t41 -28t28 -42t10.5 -50t-10.5 -50t-28 -41t-41 -28t-49.5 -11q-27 0 -50.5 11t-41.5 28t-28.5 41t-10.5 50z" />
<glyph d="M-641 958v232h185v-72h642v-160h-827z" />
<glyph d="M-542 1620h194v-291h-194v291z" />
<glyph d="M-635 1329v135h-71v136h231v-126q33 0 62 11t51.5 28t35 40t12.5 47h156q0 -52 -21 -101t-64 -87t-107.5 -60.5t-151.5 -22.5h-133z" />
<glyph d="M-424 1327v33.5t-3.5 36.5t-11 29t-21.5 12q-10 0 -17 -7t-11 -17t-5 -22.5t-1 -24.5h-85q0 10 -1.5 22.5t-5 23.5t-10.5 18q-6 7 -18 7q-15 0 -23 -12t-11 -29t-3.5 -36t-0.5 -34h-126q-4 62 7 107.5t31 75.5t48 44.5t59 14.5q28 0 52 -13q25 -14 43 -36q18 22 42 35.5 t56 13.5q18 0 36 -5.5t33 -16.5t27 -26.5t18 -35.5q7 9 13.5 22t11.5 27.5t7.5 31t2.5 32.5h147q0 -42 -14 -87t-38.5 -83.5t-57 -66t-68.5 -34.5h-102z" />
<glyph d="M-350 1436v-107h-188v107h-122v145h122v105h188v-105h120v-145h-120z" />
<glyph d="M-612 1618h194v-279h-194v279z" />
<glyph d="M-420 1436v-107h-188v107h-120v145h120v105h188v-105h122v-145h-122z" />
</font>
</defs>
</svg>
